<svg width="460" height="100" viewBox="0 0 460 100" fill="none" xmlns="http://www.w3.org/2000/svg">
<path d="M47.5655 0.30542C37.7513 0.30542 30.2137 2.82815 22.0534 8.12719C13.8932 13.4262 7.533 20.9581 3.77726 29.7701C0.0215105 38.5821 -0.961177 48.2787 0.953484 57.6334C2.86814 66.9882 7.5942 75.5812 14.5339 82.3256C21.4736 89.07 30.3155 93.6631 39.9411 95.5239C49.5668 97.3847 59.5441 96.4296 68.6113 92.7796C77.6785 89.1296 85.4284 82.9483 90.8809 75.0177C96.3334 67.0872 99.1201 60.1705 99.1201 50.6325H74.5704C74.5704 55.4015 72.9776 57.6562 70.2514 61.6214C67.5251 65.5867 63.6502 68.6773 59.1166 70.5024C54.583 72.3274 49.5943 72.8049 44.7815 71.8745C39.9687 70.9441 35.5477 68.6476 32.0779 65.2754C28.608 61.9032 26.245 57.6067 25.2877 52.9293C24.3303 48.2519 24.8217 43.4036 26.6996 38.9976C28.5774 34.5916 31.7575 30.8257 35.8377 28.1762C39.9178 25.5266 42.6584 24.1053 47.5655 24.1053V0.30542Z" fill="white"/>
<path d="M49.4068 0C55.9352 -7.59287e-08 62.3997 1.25412 68.4313 3.69076C74.4628 6.12741 79.9431 9.69885 84.5594 14.2012C89.1757 18.7035 92.8376 24.0485 95.3359 29.9311C97.8342 35.8137 99.1201 42.1186 99.1201 48.4858L74.2634 48.4858C74.2634 45.3022 73.6205 42.1498 72.3713 39.2085C71.1222 36.2672 69.2913 33.5947 66.9831 31.3435C64.6749 29.0923 61.9348 27.3066 58.919 26.0883C55.9033 24.87 52.671 24.2429 49.4068 24.2429V0Z" fill="#6F2BFF"/>
<ellipse cx="49.5693" cy="48.2112" rx="15.5068" ry="15.0704" transform="rotate(180 49.5693 48.2112)" fill="#6F2BFF"/>
<path d="M65.0762 48.2112C65.0762 46.2321 64.6751 44.2724 63.8958 42.444C63.1165 40.6155 61.9743 38.9542 60.5343 37.5548C59.0944 36.1554 57.3849 35.0453 55.5035 34.2879C53.6222 33.5306 51.6057 33.1407 49.5693 33.1407C47.5329 33.1407 45.5165 33.5306 43.6351 34.2879C41.7537 35.0453 40.0443 36.1554 38.6043 37.5548C37.1644 38.9542 36.0222 40.6156 35.2429 42.444C34.4636 44.2724 34.0625 46.2321 34.0625 48.2112L49.5693 48.2112H65.0762Z" fill="white"/>
<path d="M169.768 63.9339C169.768 67.0859 168.916 69.7212 167.211 71.8398C165.557 73.9067 163.309 75.4569 160.467 76.4903C157.625 77.5238 154.499 78.0405 151.089 78.0405H124.271V23.0091H154.887C157.47 23.0091 159.692 23.7067 161.552 25.1018C163.464 26.4453 164.911 28.2022 165.893 30.3724C166.926 32.5427 167.443 34.7905 167.443 37.1157C167.443 39.6994 166.771 42.1797 165.428 44.5566C164.084 46.8819 162.121 48.6387 159.537 49.8272C162.689 50.7573 165.17 52.4109 166.978 54.7878C168.838 57.1647 169.768 60.2134 169.768 63.9339ZM156.824 61.3761C156.824 60.1876 156.592 59.1541 156.127 58.2757C155.662 57.3456 155.042 56.6222 154.267 56.1055C153.543 55.5371 152.665 55.2529 151.631 55.2529H136.982V67.2668H151.089C152.174 67.2668 153.13 67.0084 153.957 66.4917C154.835 65.9749 155.533 65.2774 156.049 64.3989C156.566 63.5205 156.824 62.5129 156.824 61.3761ZM136.982 33.8603V45.2542H149.461C150.391 45.2542 151.244 45.0475 152.019 44.6341C152.846 44.2207 153.517 43.6007 154.034 42.7739C154.551 41.8955 154.809 40.8103 154.809 39.5185C154.809 38.2784 154.577 37.2449 154.112 36.4182C153.698 35.5914 153.13 34.9713 152.406 34.5579C151.683 34.0929 150.856 33.8603 149.926 33.8603H136.982ZM202.058 47.967C199.061 47.967 196.348 48.4579 193.92 49.4397C191.491 50.3698 189.734 51.7649 188.649 53.6252V78.0405H176.248V37.3483H187.642V45.5642C189.037 42.8256 190.845 40.6811 193.067 39.131C195.289 37.5808 197.614 36.7799 200.043 36.7282C200.611 36.7282 201.025 36.7282 201.283 36.7282C201.593 36.7282 201.852 36.754 202.058 36.8057V47.967ZM204.421 65.8716C204.421 63.1846 205.17 60.8335 206.669 58.8183C208.167 56.803 210.234 55.227 212.87 54.0902C215.505 52.9017 218.528 52.3075 221.938 52.3075C223.592 52.3075 225.219 52.4625 226.821 52.7726C228.423 53.0309 229.818 53.4185 231.007 53.9352V52.1525C231.007 49.9306 230.335 48.2254 228.991 47.0369C227.648 45.8484 225.607 45.2542 222.868 45.2542C220.595 45.2542 218.45 45.6417 216.435 46.4168C214.471 47.1919 212.379 48.3029 210.157 49.7497L206.436 41.8438C209.123 40.0869 211.914 38.7693 214.807 37.8908C217.753 37.0124 220.853 36.5732 224.108 36.5732C230.206 36.5732 234.934 38.0458 238.293 40.9912C241.703 43.8849 243.408 48.0962 243.408 53.6252V64.2439C243.408 65.4841 243.589 66.3625 243.951 66.8792C244.364 67.3443 245.062 67.6285 246.043 67.7318V78.0405C245.01 78.2472 244.028 78.4022 243.098 78.5056C242.22 78.6089 241.445 78.6606 240.773 78.6606C238.448 78.6606 236.665 78.1955 235.425 77.2654C234.236 76.3353 233.487 75.0693 233.177 73.4675L232.944 71.6848C231.136 74.0101 228.966 75.7928 226.434 77.0329C223.953 78.2214 221.344 78.8156 218.605 78.8156C215.918 78.8156 213.49 78.2472 211.319 77.1104C209.201 75.9736 207.521 74.4234 206.281 72.4599C205.041 70.4963 204.421 68.3002 204.421 65.8716ZM229.069 67.4218C229.637 66.9567 230.102 66.44 230.464 65.8716C230.826 65.3032 231.007 64.7606 231.007 64.2439V60.601C229.973 60.1876 228.811 59.8776 227.519 59.6709C226.279 59.4125 225.116 59.2833 224.031 59.2833C221.757 59.2833 219.871 59.8001 218.373 60.8335C216.874 61.8153 216.125 63.1329 216.125 64.7865C216.125 65.7166 216.383 66.5692 216.9 67.3443C217.417 68.1194 218.114 68.7394 218.993 69.2045C219.923 69.6695 221.008 69.9021 222.248 69.9021C223.488 69.9021 224.728 69.6695 225.969 69.2045C227.209 68.7394 228.242 68.1452 229.069 67.4218ZM291.614 78.0405H279.212V55.1753C279.212 52.4884 278.696 50.5506 277.662 49.3622C276.681 48.122 275.363 47.5019 273.709 47.5019C272.573 47.5019 271.41 47.812 270.221 48.4321C269.033 49.0521 267.948 49.9047 266.966 50.9899C266.036 52.075 265.313 53.3151 264.796 54.7103V78.0405H252.394V37.3483H263.556V44.1691C264.589 42.5672 265.881 41.1979 267.431 40.0611C268.981 38.9243 270.764 38.0717 272.779 37.5033C274.794 36.8832 276.991 36.5732 279.367 36.5732C282.003 36.5732 284.121 37.0641 285.723 38.0458C287.377 38.9759 288.617 40.2161 289.444 41.7663C290.322 43.3165 290.891 44.9958 291.149 46.8044C291.459 48.5612 291.614 50.2923 291.614 51.9975V78.0405ZM297.528 57.6556C297.528 53.6768 298.303 50.1114 299.854 46.9594C301.404 43.7557 303.522 41.2237 306.209 39.3635C308.896 37.5033 311.997 36.5732 315.51 36.5732C318.352 36.5732 320.936 37.2708 323.261 38.6659C325.587 40.0094 327.343 41.7921 328.532 44.014V21.4589H340.933V64.2439C340.933 65.4841 341.14 66.3625 341.553 66.8792C341.967 67.3443 342.639 67.6285 343.569 67.7318V78.0405C341.398 78.4539 339.642 78.6606 338.298 78.6606C336.179 78.6606 334.448 78.1955 333.105 77.2654C331.813 76.3353 331.012 75.0435 330.702 73.39L330.47 71.2972C329.023 73.8292 327.059 75.7153 324.579 76.9554C322.099 78.1955 319.489 78.8156 316.75 78.8156C313.96 78.8156 311.377 78.2989 309 77.2654C306.674 76.1803 304.633 74.6818 302.876 72.7699C301.171 70.858 299.854 68.6103 298.923 66.0266C297.993 63.443 297.528 60.6527 297.528 57.6556ZM328.609 62.6937V54.1677C328.093 52.7726 327.343 51.5583 326.362 50.5248C325.432 49.4913 324.346 48.6646 323.106 48.0445C321.918 47.4244 320.703 47.1144 319.463 47.1144C318.12 47.1144 316.88 47.3986 315.743 47.967C314.658 48.5354 313.702 49.3363 312.875 50.3698C312.048 51.3516 311.402 52.4884 310.937 53.7802C310.524 55.072 310.317 56.4413 310.317 57.8882C310.317 59.3867 310.55 60.7818 311.015 62.0737C311.532 63.3138 312.229 64.4248 313.108 65.4065C313.986 66.3367 315.019 67.0601 316.208 67.5768C317.396 68.0935 318.688 68.3519 320.083 68.3519C320.962 68.3519 321.814 68.2227 322.641 67.9643C323.468 67.6543 324.243 67.2668 324.966 66.8017C325.742 66.3367 326.439 65.7424 327.059 65.019C327.679 64.2956 328.196 63.5205 328.609 62.6937Z" fill="white"/>
<path d="M375.215 78.5056C370.823 78.5056 367.077 77.7822 363.977 76.3353C360.876 74.8368 358.344 72.8216 356.381 70.2896C354.469 67.706 353.048 64.7865 352.118 61.5311C351.239 58.224 350.8 54.762 350.8 51.1449V23.0091H363.511V51.1449C363.511 53.2118 363.718 55.227 364.132 57.1906C364.545 59.1025 365.217 60.8077 366.147 62.3062C367.077 63.8047 368.265 64.9932 369.712 65.8716C371.211 66.75 373.045 67.1893 375.215 67.1893C377.437 67.1893 379.297 66.75 380.796 65.8716C382.295 64.9415 383.483 63.7272 384.361 62.2287C385.24 60.6785 385.886 58.9475 386.299 57.0356C386.713 55.1237 386.919 53.1601 386.919 51.1449V23.0091H399.631V51.1449C399.631 54.9687 399.14 58.5341 398.158 61.8411C397.228 65.1482 395.781 68.0677 393.818 70.5997C391.854 73.0799 389.322 75.0177 386.222 76.4128C383.173 77.808 379.504 78.5056 375.215 78.5056ZM433.448 78.8156C430.4 78.8156 427.738 78.1697 425.465 76.8779C423.191 75.5344 421.409 73.7259 420.117 71.4523V94.55H407.715V37.3483H418.489V43.9365C419.988 41.6113 421.874 39.8027 424.147 38.5109C426.421 37.2191 429.082 36.5732 432.131 36.5732C434.869 36.5732 437.375 37.1157 439.649 38.2009C441.974 39.286 443.99 40.7845 445.695 42.6964C447.4 44.6083 448.718 46.8302 449.648 49.3622C450.578 51.8941 451.043 54.6328 451.043 57.5781C451.043 61.6086 450.294 65.2257 448.795 68.4294C447.297 71.6331 445.204 74.1651 442.517 76.0253C439.882 77.8855 436.859 78.8156 433.448 78.8156ZM429.263 68.3519C430.606 68.3519 431.821 68.0677 432.906 67.4993C434.043 66.8792 435.024 66.0783 435.851 65.0965C436.678 64.1147 437.298 62.9779 437.711 61.6861C438.176 60.3426 438.409 58.9475 438.409 57.5006C438.409 56.0021 438.151 54.6328 437.634 53.3926C437.169 52.1525 436.497 51.0674 435.619 50.1373C434.74 49.1555 433.707 48.4062 432.518 47.8895C431.33 47.3728 430.038 47.1144 428.643 47.1144C427.816 47.1144 426.963 47.2436 426.085 47.5019C425.258 47.7603 424.457 48.1479 423.682 48.6646C422.959 49.1296 422.287 49.698 421.667 50.3698C421.047 51.0415 420.53 51.8166 420.117 52.6951V61.066C420.685 62.4612 421.434 63.7013 422.364 64.7865C423.295 65.8716 424.354 66.75 425.542 67.4218C426.731 68.0419 427.971 68.3519 429.263 68.3519Z" fill="#6F2BFF"/>
</svg>
