<svg width="100" height="108" viewBox="0 0 100 108" fill="none" xmlns="http://www.w3.org/2000/svg">
<path d="M85.5237 14.7403C80.9228 10.0931 75.4504 6.39909 69.4198 3.86973C63.3893 1.34036 56.9191 0.0253573 50.3796 0H49.9998C36.739 0 24.0214 5.26782 14.6446 14.6446C5.26782 24.0214 0 36.739 0 49.9998V76.9228C0 79.983 1.21565 82.9178 3.37953 85.0817C5.5434 87.2456 8.47824 88.4612 11.5384 88.4612H19.2307C22.2909 88.4612 25.2257 87.2456 27.3896 85.0817C29.5535 82.9178 30.7691 79.983 30.7691 76.9228V57.6921C30.7691 54.6319 29.5535 51.6971 27.3896 49.5332C25.2257 47.3693 22.2909 46.1537 19.2307 46.1537H7.86536C8.6071 38.1342 11.6194 30.4922 16.5491 24.1235C21.4788 17.7548 28.1218 12.9232 35.6994 10.195C43.277 7.46679 51.4752 6.95504 59.3333 8.71971C67.1913 10.4844 74.3835 14.4524 80.067 20.1586C87.0136 27.1408 91.2864 36.3415 92.1391 46.1537H80.7689C77.7088 46.1537 74.7739 47.3693 72.61 49.5332C70.4462 51.6971 69.2305 54.6319 69.2305 57.6921V76.9228C69.2305 79.983 70.4462 82.9178 72.61 85.0817C74.7739 87.2456 77.7088 88.4612 80.7689 88.4612H92.3074C92.3074 91.5214 91.0917 94.4562 88.9278 96.6201C86.764 98.784 83.8291 99.9996 80.7689 99.9996H53.846C52.8259 99.9996 51.8476 100.405 51.1263 101.126C50.405 101.847 49.9998 102.826 49.9998 103.846C49.9998 104.866 50.405 105.844 51.1263 106.565C51.8476 107.287 52.8259 107.692 53.846 107.692H80.7689C85.8692 107.692 90.7606 105.666 94.3671 102.059C97.9735 98.4529 99.9996 93.5615 99.9996 88.4612V49.9998C100.025 43.4593 98.7589 36.9782 96.2749 30.9277C93.7908 24.8773 90.1373 19.3764 85.5237 14.7403ZM19.2307 53.846C20.2508 53.846 21.229 54.2512 21.9503 54.9725C22.6716 55.6938 23.0768 56.672 23.0768 57.6921V76.9228C23.0768 77.9429 22.6716 78.9211 21.9503 79.6424C21.229 80.3637 20.2508 80.7689 19.2307 80.7689H11.5384C10.5184 80.7689 9.54008 80.3637 8.81879 79.6424C8.0975 78.9211 7.69228 77.9429 7.69228 76.9228V53.846H19.2307ZM80.7689 80.7689C79.7489 80.7689 78.7706 80.3637 78.0493 79.6424C77.328 78.9211 76.9228 77.9429 76.9228 76.9228V57.6921C76.9228 56.672 77.328 55.6938 78.0493 54.9725C78.7706 54.2512 79.7489 53.846 80.7689 53.846H92.3074V80.7689H80.7689Z" fill="#6F2BFF"/>
</svg>
