<svg width="173" height="177" viewBox="0 0 173 177" fill="none" xmlns="http://www.w3.org/2000/svg">
<path d="M112.688 0.38913C108.03 1.87886 104.683 5.20477 103.165 9.74324L102.544 11.5101L94.5041 11.718C85.7399 11.9259 84.7048 12.0991 80.4262 14.2817C73.6287 17.7116 68.8671 23.6358 66.9348 30.9805C66.3827 33.0246 66.2102 34.8954 66.1757 38.741C66.1067 43.3141 66.1757 43.9031 66.7623 44.5613C67.6249 45.4967 69.4882 45.5314 70.4198 44.596C71.0064 44.007 71.1099 43.418 71.1099 40.6811C71.1444 32.297 72.9041 27.3082 77.3552 22.8736C79.9431 20.3099 82.4274 18.7856 85.7054 17.7462L88.3968 16.8801H108.617C131.079 16.8801 130.907 16.8801 135.461 19.2359C138.498 20.795 142.259 24.5366 143.846 27.5161C145.985 31.5695 146.33 33.8907 146.33 43.7991V52.5989L144.191 52.495L142.017 52.3911L139.947 47.0211C138.118 42.2055 137.704 41.4779 136.117 39.8496C134.737 38.4638 133.909 37.9442 132.356 37.4591C129.009 36.4891 127.767 36.8355 119.279 41.0275L111.722 44.7692L108.755 44.7345H105.787L98.1961 40.9583C90.6051 37.182 90.6051 37.182 88.0172 37.182C85.7744 37.1473 85.1878 37.2859 83.6006 38.152C82.5655 38.741 81.2888 39.7803 80.7367 40.4732C79.6671 41.859 79.6326 41.9283 77.1827 48.303L75.5265 52.5643H71.0064C66.5898 52.5643 66.4172 52.5989 64.6575 53.6036C61.276 55.5437 60.2409 58.246 60.4824 64.4475C60.6549 68.6048 61.0345 69.8521 62.7942 71.7229C64.5885 73.6976 66.0377 74.1827 70.6958 74.3212C73.0076 74.3905 74.9054 74.4945 74.9054 74.5638C74.9054 74.633 75.1124 75.8456 75.3885 77.2661C77.2172 86.8627 84.6012 95.8703 93.7105 99.5773C95.2287 100.201 96.6779 100.721 96.9194 100.721C97.2645 100.721 97.3335 101.76 97.2645 105.294L97.161 109.902L82.3929 110.005L67.6249 110.075L67.2453 108.966C66.6933 107.372 64.6575 103.527 63.6568 102.21C63.2083 101.621 62.8287 100.894 62.8287 100.617C62.8287 100.374 63.7604 97.5333 64.899 94.3806C66.0377 91.1933 66.9693 88.1099 66.9693 87.5209C66.9693 84.4722 63.5533 81.8392 60.6549 82.636C60.0338 82.8092 57.239 84.5415 54.4441 86.5162L49.3719 90.05L47.1981 89.1839C42.0223 87.1052 34.4658 86.4123 28.8415 87.5209C21.4575 88.976 14.7291 92.5444 9.79489 97.7065C5.48179 102.21 2.82492 106.991 1.13419 113.193C-0.0734803 117.766 -0.14249 125.353 0.996168 129.926C3.86006 141.359 12.0722 150.782 22.5962 154.663C27.9789 156.637 35.6735 157.4 40.6767 156.395L43.161 155.91V156.707C43.161 157.122 42.7124 160.899 42.1259 165.056C41.5738 169.213 41.0907 173.232 41.0907 174.029C41.0907 175.761 41.8843 176.593 43.5751 176.593C45.7489 176.593 45.8524 176.316 47.4051 164.64L48.8543 154.039L51.4422 152.653C60.1719 147.907 66.3482 139.8 68.7635 129.926C69.4882 126.912 69.7987 120.26 69.3846 116.83L69.2121 115.445L72.9041 115.341C76.5271 115.237 76.6306 115.271 76.7687 116.034C76.8722 116.484 77.2517 120.018 77.6658 123.933C78.5629 132.906 78.8044 133.91 80.3572 135.712C82.0479 137.721 83.8076 138.449 86.8095 138.483H89.2249L97.7821 148.392L106.305 158.266V166.719C106.305 174.757 106.339 175.242 106.995 175.9C108.03 176.939 109.859 176.835 110.756 175.692C111.446 174.826 111.48 174.341 111.48 166.407V158.058L119.934 148.288L128.422 138.483H130.872C134.633 138.483 137.325 136.855 138.601 133.806C138.808 133.217 139.429 128.956 139.947 124.314C140.43 119.637 140.913 115.722 141.017 115.549C141.258 115.168 149.85 115.202 152.541 115.618C158.683 116.588 163.686 121.3 165.101 127.432C165.687 129.857 166.516 130.862 168.034 130.862C169.276 130.862 170.484 129.545 170.484 128.229C170.484 126.635 169.518 123.69 168.137 120.988C166.481 117.801 163.134 114.44 159.96 112.777C155.095 110.248 155.612 110.317 137.118 110.144L120.452 110.005L120.279 109.278C120.176 108.862 120.107 106.818 120.176 104.705L120.279 100.928L122.764 99.9931C126.835 98.4687 130.286 96.3554 133.391 93.3759L134.806 92.0594L136.807 93.9649C142.431 99.3002 151.264 100.409 161.926 97.0483C165.757 95.8357 167.137 95.0042 168.068 93.3759C169.172 91.4012 168.896 89.565 167.102 86.8973C165.584 84.6108 164.963 82.3935 164.963 79.3101C164.963 77.7511 165.48 75.7763 167.378 70.2332C170.346 61.6066 171.001 59.1468 171.691 53.8461C172.692 46.1203 172.071 31.5349 170.484 25.1602C168.275 16.2565 163.031 9.18892 155.44 4.89296C152.507 3.26466 149.505 2.05209 145.64 1.01274C142.431 0.146622 142.121 0.146622 128.215 0.0426788C117.312 -0.0612488 113.758 0.0426788 112.688 0.38913ZM144.433 6.07089C156.578 9.39679 163.755 16.8108 165.791 28.0011C166.688 33.0246 167.137 40.5079 166.93 47.1597C166.619 55.8555 165.998 58.7657 161.478 71.4457C160.063 75.4645 159.994 75.7417 159.994 79.7605C160.029 84.4029 160.581 86.6202 162.513 89.4264L163.583 90.9854L161.685 91.6783C158.925 92.7177 153.3 93.7916 150.574 93.7916C147.918 93.7916 144.95 93.1334 142.845 92.0248C141.327 91.2626 138.394 88.4563 138.394 87.7634C138.394 87.5556 139.015 86.1351 139.74 84.6454C140.982 82.1856 142.535 76.9196 142.535 75.1527C142.535 74.4945 142.776 74.4598 146.951 74.3559C151.195 74.2173 151.472 74.1827 153.093 73.178C154.128 72.5197 155.164 71.4804 155.819 70.441L156.854 68.7434V63.2695V57.8303L155.819 56.3059C155.233 55.5091 154.025 54.3312 153.162 53.7768L151.541 52.7375V43.7991C151.506 34.2025 151.195 31.4309 149.608 27.5161C147.745 22.9429 143.259 17.7462 138.946 15.1825C137.842 14.5242 135.703 13.5195 134.15 12.9306L131.321 11.8566L119.658 11.7526L107.995 11.6487L108.237 10.8865C108.789 9.0157 110.859 6.83307 113.033 5.75908C114.344 5.13548 115.138 5.10083 128.043 5.20477C140.81 5.3087 141.845 5.34335 144.433 6.07089ZM95.9533 45.6353C103.372 49.3423 105.615 50.1391 108.72 50.1391C111.826 50.1391 114.275 49.273 121.452 45.7392C131.631 40.7157 131.838 40.785 135.289 49.3077L137.532 54.8162V62.2302V69.6788L125.455 72.1733C118.83 73.5591 112.964 74.7716 112.481 74.8756C111.584 75.0488 111.549 75.0141 111.411 72.7622C111.308 70.8914 111.135 70.3717 110.48 69.8521C109.41 68.9859 108.099 69.0206 107.098 69.956C106.443 70.5796 106.305 71.0646 106.305 72.9008C106.305 74.1134 106.201 75.0834 106.063 75.0488C105.891 75.0488 100.059 73.8362 93.0204 72.3811L80.2536 69.7135L80.1501 62.4727L80.0811 55.2666L82.0134 50.1738C83.083 47.4022 84.1872 44.6999 84.4977 44.1802C85.1188 43.0716 86.7405 42.2055 88.0862 42.1708C88.5693 42.1708 92.1233 43.7298 95.9533 45.6353ZM74.9054 63.4774V69.1938H71.3169C68.0044 69.1938 67.6249 69.1245 66.7278 68.3623C65.7961 67.5655 65.7616 67.3923 65.6581 63.7546C65.5201 60.0822 65.5546 59.9436 66.4517 58.8696L67.3834 57.761H71.1444H74.9054V63.4774ZM150.988 58.6271C151.817 59.424 151.851 59.6665 151.851 63.3735C151.817 68.7781 151.437 69.1938 146.192 69.1938H142.88V63.4774V57.761H146.503C149.919 57.761 150.195 57.8303 150.988 58.6271ZM93.883 77.8897C109.41 81.1116 108.237 81.1463 124.558 77.7164C131.459 76.2614 137.187 75.1527 137.256 75.222C137.566 75.4992 135.979 80.6959 134.978 82.636C131.942 88.6989 126.904 93.0641 120.279 95.42C117.519 96.39 117.484 96.39 108.893 96.39C100.404 96.39 100.232 96.39 97.506 95.4546C93.3655 94.0342 90.6051 92.2673 87.2581 88.8721C84.7393 86.3084 83.9802 85.3037 82.7035 82.636C81.2888 79.6565 80.4262 76.9543 80.4262 75.5685C80.4262 75.1527 80.6332 75.0488 81.2198 75.1874C81.6338 75.2913 87.3271 76.5039 93.883 77.8897ZM60.5169 91.2626C56.5144 102.418 56.6179 101.483 58.8952 104.462C60.5859 106.714 62.6907 111.149 63.5533 114.44C64.5885 118.147 64.6575 125.388 63.7259 128.956C60.2409 142.398 48.4747 151.649 34.8799 151.649C21.5265 151.649 10.3815 143.126 6.34441 129.926C5.5508 127.224 5.44728 126.323 5.44728 121.854C5.44728 117.385 5.5508 116.484 6.34441 113.782C9.65687 102.903 17.3514 95.6625 28.531 92.8562C30.1527 92.4751 32.3265 92.2673 35.2249 92.2673C39.8831 92.2673 42.816 92.8909 46.784 94.6578C47.8882 95.1428 49.1648 95.5239 49.6824 95.5239C50.3035 95.5239 52.3738 94.2767 55.9278 91.7476C58.8607 89.6689 61.3795 87.9367 61.5175 87.9367C61.6211 87.902 61.1725 89.4264 60.5169 91.2626ZM114.931 105.467C114.965 111.114 115.518 112.777 118.036 114.475C118.934 115.098 119.658 115.271 121.383 115.271C122.626 115.271 123.557 115.41 123.488 115.583C123.454 115.791 120.072 119.152 116.07 123.067L108.72 130.203L101.233 122.755L93.7105 115.306L95.9533 115.271C98.8862 115.271 100.646 114.301 101.75 112.153C102.406 110.802 102.509 110.109 102.509 106.195V101.76H108.72H114.931V105.467ZM96.3329 125.215L106.339 135.192L106.236 142.641L106.132 150.09L100.439 143.507C97.299 139.869 94.021 136.128 93.1239 135.192L91.5022 133.46L88.2242 133.356C85.5329 133.252 84.8428 133.114 84.3597 132.559C83.8766 132.005 83.5661 130.307 82.9795 125.041C82.531 121.3 82.1859 117.558 82.1859 116.727L82.1514 115.271H84.2562H86.361L96.3329 125.215ZM135.634 115.687C135.634 116.934 133.909 131.52 133.702 132.005C133.356 132.975 132.39 133.287 129.699 133.287C128.319 133.287 126.835 133.391 126.421 133.495C126.007 133.599 122.522 137.34 118.657 141.809L111.653 149.951L111.549 142.398L111.446 134.846L121.383 125.076L131.321 115.306H133.495C134.978 115.271 135.634 115.41 135.634 115.687Z" fill="white"/>
</svg>
