<svg width="181" height="181" viewBox="0 0 181 181" fill="none" xmlns="http://www.w3.org/2000/svg">
<path d="M91.9267 1.38306C88.5903 2.3259 86.9221 3.59509 80.1042 10.34C76.5139 13.8938 73.4677 16.7948 73.3226 16.7948C73.1775 16.7948 72.2346 16.2871 71.2192 15.6706C68.9345 14.2564 64.8003 12.9146 61.754 12.5883C59.1791 12.3344 54.6823 12.9146 52.9053 13.7487C51.5634 14.4014 50.7656 15.997 51.1645 17.2299C51.5272 18.4266 77.3118 43.9919 78.1459 43.9919C78.5448 43.9919 79.4152 43.4842 80.1042 42.8678C81.6636 41.5261 82.2801 39.1327 82.2439 34.5636C82.2076 30.1032 80.8295 25.5341 78.4723 22.1979L77.8195 21.2551L84.1659 14.8728C90.8025 8.23674 92.2168 7.18512 95.2994 6.78623C98.7446 6.31481 102.516 8.41806 104.366 11.863L105.164 13.3498L105.272 50.5918L105.345 87.87H85.6165H65.8882L44.3467 74.3802C29.2603 64.9519 22.1886 60.7091 20.6654 60.2014C17.4378 59.1861 11.998 59.4399 9.16933 60.7454C1.55362 64.2629 -1.09374 73.7275 3.51195 81.0526C4.85376 83.1558 7.79125 85.9481 9.06054 86.2744C10.4024 86.6008 11.7442 85.9118 12.2881 84.5338C12.9772 82.9745 12.542 81.9954 10.2936 79.9647C7.24727 77.245 6.26811 74.3439 7.21101 71.0803C7.90005 68.7957 9.53199 66.7287 11.5266 65.6409C12.6871 65.0607 13.6662 64.8431 15.7696 64.8431C19.106 64.8431 16.64 63.4651 43.8752 80.4724L64.1475 93.1281L97.5478 93.3094C130.876 93.4907 130.912 93.4907 133.305 94.2885C137.403 95.7028 139.869 97.6247 148.138 105.965C152.417 110.28 156.334 114.088 156.842 114.414C158.8 115.792 161.193 114.559 161.193 112.239C161.193 110.969 160.722 110.426 152.417 102.158C143.423 93.2369 141.465 91.7139 137.004 89.8645C132.906 88.2326 130.005 87.87 120.214 87.87H111.147V76.2659V64.6618H119.851H128.555V69.5573C128.555 74.3077 128.591 74.5253 129.461 75.3593C130.295 76.2296 130.513 76.2659 135.264 76.2659H140.16V78.2603C140.16 80.69 141.211 82.0679 143.061 82.0679C144.91 82.0679 145.962 80.69 145.962 78.2603V76.2659H148.863H151.764V78.2603C151.764 80.69 152.816 82.0679 154.666 82.0679C156.515 82.0679 157.567 80.69 157.567 78.2603V76.2659H160.468H163.369V78.2603C163.369 80.69 164.421 82.0679 166.271 82.0679C168.12 82.0679 169.172 80.69 169.172 78.2603V76.2659H174.068C178.818 76.2659 179.036 76.2296 179.87 75.3593L180.777 74.489V61.7607V49.0325L179.87 48.1622L179 47.2556H165.074C151.511 47.2556 151.112 47.2918 150.169 48.0171C149.443 48.5973 149.226 49.0687 149.226 50.1566C149.226 51.2445 149.443 51.7159 150.169 52.2961C151.112 53.0214 151.547 53.0576 163.043 53.0576H174.974V61.7607V70.4638H172.073H169.172V65.5683C169.172 60.8179 169.135 60.6003 168.265 59.7663C167.105 58.5696 165.436 58.5696 164.276 59.7663C163.406 60.6003 163.369 60.8179 163.369 65.5683V70.4638H160.468H157.567V65.5683C157.567 60.8179 157.531 60.6003 156.66 59.7663C155.5 58.5696 153.832 58.5696 152.671 59.7663C151.801 60.6003 151.764 60.8179 151.764 65.5683V70.4638H148.863H145.962V65.5683C145.962 60.8179 145.926 60.6003 145.055 59.7663C143.895 58.5696 142.227 58.5696 141.066 59.7663C140.196 60.6003 140.16 60.8179 140.16 65.5683V70.4638H137.258H134.357V61.7607V53.0576H137.621C140.631 53.0576 140.994 52.9851 141.791 52.1511C143.061 50.9181 143.024 49.0325 141.755 48.0171C140.885 47.3281 140.305 47.2556 135.554 47.2556C130.513 47.2556 130.295 47.2918 129.461 48.1622C128.591 48.9962 128.555 49.2138 128.555 53.9642V58.8597H119.851H111.147V37.102C111.147 22.5968 111.002 14.7278 110.748 13.4586C110.168 10.6664 108.065 6.93128 106.034 5.00935C102.262 1.49185 96.6774 0.0775986 91.9267 1.38306ZM66.2146 19.6233C70.6752 21.7991 74.0842 25.6429 75.6073 30.1758C76.0062 31.445 76.3326 33.0405 76.2601 33.6933C76.1513 34.9262 76.115 34.9262 67.8103 26.5495L59.4693 18.1728L61.6815 18.3178C63.2409 18.4266 64.6189 18.8255 66.2146 19.6233Z" fill="white"/>
<path d="M39.16 26.7666C37.9633 27.9633 37.9996 29.305 39.3051 30.6105L40.3567 31.6621H45.2886C49.9303 31.6621 50.2204 31.6258 51.1633 30.7918C51.9611 30.1391 52.1787 29.6314 52.1424 28.5435C52.0699 26.1502 51.3809 25.8601 45.2523 25.8601C40.2116 25.8601 39.9941 25.8963 39.16 26.7666Z" fill="white"/>
<path d="M56.5672 34.2737C55.4068 34.8901 51.6719 38.6249 51.0555 39.7852C50.3303 41.1631 50.7291 42.396 52.0708 43.1212C53.9201 44.0639 55.2255 43.5563 57.7275 40.9818C61.0998 37.5371 61.3899 36.6306 59.6856 34.8901C58.5615 33.766 57.7638 33.621 56.5672 34.2737Z" fill="white"/>
<path d="M64.8723 42.54C63.2042 43.1927 62.9141 44.2081 62.9141 49.1398C62.9141 51.787 63.0954 54.1441 63.313 54.6518C64.147 56.4649 67.0481 56.7188 68.1723 55.1232C68.6075 54.5067 68.7163 53.165 68.7163 49.2124C68.7163 44.8245 68.6075 43.9542 68.0998 43.3378C67.3382 42.4675 65.924 42.1411 64.8723 42.54Z" fill="white"/>
<path d="M14.0655 70.6457C13.4128 70.9358 12.8326 71.516 12.6151 72.1324C11.9624 74.0905 12.47 74.8519 16.1324 77.2813C18.018 78.5142 19.9398 79.6383 20.4112 79.747C21.8254 80.1459 23.022 79.602 23.6384 78.2604C24.545 76.3386 23.8923 75.3596 20.1936 72.9301C16.1687 70.2831 15.516 70.0656 14.0655 70.6457Z" fill="white"/>
<path d="M31.2545 81.7049C30.2029 82.539 29.7677 83.8444 30.2391 85.0411C30.4567 85.6213 33.503 87.7608 39.7406 91.7135C44.8178 94.9046 49.3509 97.6243 49.8224 97.7694C51.1279 98.0957 52.3609 97.443 52.9412 96.1375C53.8841 93.853 53.4489 93.4178 43.1858 86.9268C37.9999 83.6631 33.4305 80.9797 32.9953 80.9797C32.5601 80.9797 31.7623 81.306 31.2545 81.7049Z" fill="white"/>
<path d="M17.7288 86.4192C16.7134 86.8181 15.7705 88.1598 15.7705 89.2114C15.7705 89.6466 16.1332 90.4081 16.6046 90.9158C17.8014 92.2575 52.5072 113.943 55.4447 115.176C58.7086 116.554 62.5165 117.206 67.1947 117.243C69.9146 117.243 70.8937 117.351 70.8937 117.678C70.8937 117.932 71.3652 119.165 71.9454 120.361C73.7587 124.205 76.4786 126.635 80.4678 127.976L82.136 128.557V145.89V163.224L76.0797 163.369C70.0959 163.478 69.9508 163.514 67.5573 164.638C64.4385 166.089 61.7912 168.736 60.3768 171.709C59.7603 172.979 59.2888 174.212 59.2888 174.429C59.2888 174.756 58.5998 174.901 57.1129 174.901C55.2634 174.901 54.7557 175.046 54.0304 175.807C52.8336 176.968 52.8336 178.636 54.0304 179.796L54.9007 180.703H83.6954C111.438 180.703 112.563 180.666 113.36 180.014C114.557 179.035 114.557 176.569 113.36 175.59C112.563 174.937 111.547 174.901 88.9901 174.901C76.0434 174.901 65.4539 174.828 65.4539 174.719C65.4539 173.269 68.6816 170.15 70.8575 169.534C72.8158 168.917 120.468 168.917 122.427 169.534C124.603 170.15 127.83 173.269 127.83 174.719C127.83 174.828 126.779 174.901 125.473 174.901C123.406 174.901 122.971 175.009 122.209 175.807C121.012 176.968 121.012 178.636 122.209 179.796L123.079 180.703H142.336H161.593L162.464 179.796C163.044 179.252 163.37 178.491 163.37 177.802C163.37 177.113 163.044 176.351 162.464 175.807L161.593 174.901H147.776C137.005 174.901 133.995 174.792 133.995 174.429C133.995 174.212 133.524 173.015 132.944 171.818C131.384 168.555 129.317 166.451 126.09 164.856L123.333 163.478L117.241 163.333L111.148 163.224V145.745V128.23L112.708 127.795C116.914 126.526 120.759 122.682 122.028 118.403C122.499 116.953 122.572 116.88 123.986 116.88C125.437 116.88 125.618 117.061 141.792 133.126C160.832 152.091 160.034 151.511 166.453 151.511C169.644 151.511 170.333 151.402 172.146 150.532C175.048 149.19 177.659 146.616 179.073 143.751C180.161 141.502 180.234 141.14 180.234 137.369C180.234 133.815 180.125 133.162 179.291 131.349C177.913 128.448 175.918 126.308 174.54 126.308C173.053 126.308 172.255 126.816 171.711 128.085C171.349 128.992 171.385 129.354 171.82 130.188C174.395 134.939 174.612 135.519 174.612 137.441C174.612 140.813 172.981 143.497 170.079 144.839C168.266 145.673 164.603 145.745 162.717 144.984C161.811 144.585 156.262 139.29 145.238 128.303C134.213 117.279 128.664 112.021 127.758 111.622C126.597 111.15 123.95 111.078 110.097 111.078C94.6838 111.078 93.7771 111.114 92.9793 111.767C92.3265 112.275 92.1089 112.819 92.1089 113.979C92.1089 115.139 92.3265 115.683 92.9793 116.191C93.7771 116.844 94.575 116.88 105.019 116.88C111.184 116.88 116.225 116.953 116.225 117.061C116.225 118.512 112.998 121.63 110.822 122.247C108.9 122.827 84.3844 122.827 82.4624 122.247C80.2864 121.63 77.0588 118.512 77.0588 117.061C77.0588 116.953 78.4369 116.88 80.1414 116.88C82.9701 116.88 83.3327 116.807 84.1306 115.973C84.7108 115.429 85.0372 114.668 85.0372 113.979C85.0372 113.29 84.7108 112.528 84.1306 111.985L83.2602 111.078H73.3235C62.8428 111.078 60.8845 110.897 57.5118 109.519C56.3514 109.047 47.4301 103.68 37.6747 97.5882C27.9194 91.496 19.6146 86.4192 19.2157 86.3104C18.8168 86.2016 18.1278 86.2379 17.7288 86.4192ZM105.346 145.89V163.296H96.6421H87.9384V145.89V128.484H96.6421H105.346V145.89Z" fill="white"/>
<path d="M122.208 100.381C120.286 102.266 121.664 105.276 124.456 105.276C126.378 105.276 129.86 106.219 131.419 107.162C132.144 107.597 134.683 109.845 137.113 112.239C141.283 116.3 141.573 116.518 142.988 116.518C145.562 116.518 146.614 114.813 145.454 112.565C144.547 110.861 136.677 103.572 134.211 102.194C131.673 100.779 127.103 99.474 124.674 99.474C123.477 99.474 122.86 99.6916 122.208 100.381Z" fill="white"/>
<path d="M163.587 117.642C162.862 118.222 162.645 118.694 162.645 119.745C162.645 120.942 162.898 121.377 164.458 122.827C166.488 124.713 167.757 124.967 169.317 123.734C170.948 122.465 170.622 120.978 168.301 118.73C166.089 116.663 165.11 116.446 163.587 117.642Z" fill="white"/>
<path d="M1.80675 175.807C0.609991 176.968 0.609991 178.636 1.80675 179.796L2.67711 180.703H24.1099H45.5427L46.413 179.796C47.6098 178.636 47.6098 176.968 46.413 175.807L45.5427 174.901H24.1099H2.67711L1.80675 175.807Z" fill="white"/>
<path d="M170.078 175.808C169.498 176.351 169.172 177.113 169.172 177.802C169.172 178.491 169.498 179.252 170.078 179.796C170.912 180.666 171.202 180.703 174.974 180.703C178.745 180.703 179.035 180.666 179.869 179.796C180.449 179.252 180.775 178.491 180.775 177.802C180.775 177.113 180.449 176.351 179.869 175.808C179.035 174.937 178.745 174.901 174.974 174.901C171.202 174.901 170.912 174.937 170.078 175.808Z" fill="white"/>
</svg>
