<svg width="119" height="119" viewBox="0 0 119 119" fill="none" xmlns="http://www.w3.org/2000/svg">
<path d="M49.4768 103.864H83.9808C89.4254 103.864 93.8391 99.4506 93.8391 94.006V46.7562C93.8391 45.449 93.3198 44.1952 92.3954 43.2708L65.7079 16.5834C64.7835 15.659 63.5298 15.1396 62.2225 15.1396H34.6893C29.2448 15.1396 24.8311 19.5534 24.8311 24.9979V79.2186M24.8311 103.864L48.8788 79.8166M48.8788 79.8166C51.5548 82.4926 55.2516 84.1477 59.3351 84.1477C67.502 84.1477 74.1225 77.5271 74.1225 69.3603C74.1225 61.1934 67.502 54.5728 59.3351 54.5728C51.1682 54.5728 44.5476 61.1934 44.5476 69.3603C44.5476 73.4437 46.2028 77.1406 48.8788 79.8166Z" stroke="white" stroke-width="7.57117" stroke-linecap="round"/>
</svg>
