<svg width="108" height="84" viewBox="0 0 108 84" fill="none" xmlns="http://www.w3.org/2000/svg">
<path d="M103.846 0H4.15385C3.05218 0 1.99563 0.437637 1.21663 1.21663C0.437636 1.99563 0 3.05218 0 4.15385V74.7692C0 76.9726 0.875272 79.0857 2.43327 80.6436C3.99126 82.2016 6.10436 83.0769 8.30769 83.0769H99.6923C101.896 83.0769 104.009 82.2016 105.567 80.6436C107.125 79.0857 108 76.9726 108 74.7692V4.15385C108 3.05218 107.562 1.99563 106.783 1.21663C106.004 0.437637 104.948 0 103.846 0ZM54 44.2125L14.8344 8.30769H93.1656L54 44.2125ZM38.7917 41.5385L8.30769 69.4783V13.5987L38.7917 41.5385ZM44.9394 47.1721L51.1702 52.9096C51.9365 53.6131 52.939 54.0034 53.9792 54.0034C55.0195 54.0034 56.0219 53.6131 56.7883 52.9096L63.019 47.1721L93.1344 74.7692H14.8344L44.9394 47.1721ZM69.2083 41.5385L99.6923 13.5935V69.4835L69.2083 41.5385Z" fill="#6F2BFF"/>
</svg>
