<svg width="74" height="74" viewBox="0 0 74 74" fill="none" xmlns="http://www.w3.org/2000/svg">
<path d="M36.9756 7.6875C31.0964 7.6875 25.3493 9.43088 20.461 12.6972C15.5726 15.9635 11.7626 20.606 9.51274 26.0376C7.26288 31.4693 6.67421 37.4461 7.82118 43.2123C8.96815 48.9785 11.7992 54.2751 15.9564 58.4323C20.1136 62.5895 25.4102 65.4206 31.1764 66.5675C36.9426 67.7145 42.9195 67.1258 48.3511 64.876C53.7828 62.6261 58.4253 58.8161 61.6916 53.9278C64.9578 49.0394 66.7012 43.2923 66.7012 37.4131C66.6929 29.5319 63.5584 21.9759 57.9856 16.4031C52.4128 10.8303 44.8568 7.69582 36.9756 7.6875ZM39.2622 62.4598V44.2729H46.122C46.7284 44.2729 47.31 44.032 47.7388 43.6031C48.1676 43.1743 48.4085 42.5927 48.4085 41.9863C48.4085 41.3798 48.1676 40.7982 47.7388 40.3694C47.31 39.9406 46.7284 39.6997 46.122 39.6997H39.2622V32.8399C39.2622 31.6271 39.744 30.4639 40.6017 29.6062C41.4593 28.7486 42.6225 28.2668 43.8354 28.2668H48.4085C49.015 28.2668 49.5966 28.0259 50.0254 27.597C50.4542 27.1682 50.6951 26.5866 50.6951 25.9802C50.6951 25.3737 50.4542 24.7921 50.0254 24.3633C49.5966 23.9345 49.015 23.6936 48.4085 23.6936H43.8354C41.4096 23.6936 39.0832 24.6572 37.3679 26.3725C35.6527 28.0878 34.689 30.4142 34.689 32.8399V39.6997H27.8293C27.2228 39.6997 26.6412 39.9406 26.2124 40.3694C25.7836 40.7982 25.5427 41.3798 25.5427 41.9863C25.5427 42.5927 25.7836 43.1743 26.2124 43.6031C26.6412 44.032 27.2228 44.2729 27.8293 44.2729H34.689V62.4598C28.2431 61.8714 22.2722 58.8206 18.0182 53.9421C13.7642 49.0637 11.5547 42.733 11.8492 36.267C12.1438 29.801 14.9196 23.6975 19.5995 19.2259C24.2794 14.7544 30.5029 12.2591 36.9756 12.2591C43.4483 12.2591 49.6719 14.7544 54.3517 19.2259C59.0316 23.6975 61.8075 29.801 62.102 36.267C62.3965 42.733 60.187 49.0637 55.933 53.9421C51.679 58.8206 45.7081 61.8714 39.2622 62.4598Z" fill="white"/>
</svg>
