<svg width="47" height="48" viewBox="0 0 47 48" fill="none" xmlns="http://www.w3.org/2000/svg">
<path d="M23.5018 0.256836C10.8604 0.256836 0.612305 10.7796 0.612305 23.7599C0.612305 35.4016 8.86443 45.0429 19.6843 46.9099V28.6632H14.1627V22.097H19.6843V17.2553C19.6843 11.6376 23.0259 8.57621 27.9072 8.57621C30.2451 8.57621 32.2542 8.75509 32.8374 8.83387V14.7059L29.4519 14.7076C26.7978 14.7076 26.2861 16.0023 26.2861 17.903V22.0936H32.619L31.793 28.6599H26.2861V47.0669C37.6112 45.6516 46.3911 35.7647 46.3911 23.7531C46.3911 10.7796 36.143 0.256836 23.5018 0.256836Z" fill="white"/>
</svg>
