<svg width="121" height="121" viewBox="0 0 121 121" fill="none" xmlns="http://www.w3.org/2000/svg">
<path d="M60.4246 38.0503C55.9981 38.0503 51.6709 39.363 47.9903 41.8222C44.3098 44.2815 41.4411 47.777 39.7472 51.8666C38.0532 55.9562 37.61 60.4563 38.4736 64.7978C39.3371 69.1393 41.4687 73.1272 44.5988 76.2573C47.7288 79.3873 51.7168 81.5189 56.0583 82.3825C60.3998 83.2461 64.8999 82.8029 68.9895 81.1089C73.0791 79.4149 76.5746 76.5463 79.0338 72.8657C81.4931 69.1852 82.8057 64.858 82.8057 60.4315C82.7996 54.4975 80.4396 48.8084 76.2436 44.6124C72.0477 40.4165 66.3586 38.0565 60.4246 38.0503ZM60.4246 75.3522C57.4736 75.3522 54.5888 74.4771 52.1351 72.8376C49.6814 71.1981 47.769 68.8678 46.6397 66.1414C45.5103 63.415 45.2149 60.4149 45.7906 57.5206C46.3663 54.6262 47.7874 51.9676 49.8741 49.8809C51.9608 47.7942 54.6194 46.3731 57.5137 45.7974C60.4081 45.2217 63.4081 45.5172 66.1345 46.6465C68.8609 47.7758 71.1912 49.6882 72.8308 52.1419C74.4703 54.5956 75.3454 57.4804 75.3454 60.4315C75.3454 64.3887 73.7733 68.1838 70.9752 70.982C68.177 73.7802 64.3818 75.3522 60.4246 75.3522ZM101.457 61.4386C101.475 60.7672 101.475 60.0957 101.457 59.4243L108.413 50.733C108.778 50.2766 109.031 49.741 109.151 49.1692C109.27 48.5974 109.254 48.0055 109.104 47.4411C107.963 43.1542 106.257 39.0381 104.03 35.2014C103.739 34.6993 103.334 34.2722 102.849 33.9541C102.363 33.636 101.81 33.4356 101.233 33.369L90.1728 32.138C89.7128 31.6531 89.2465 31.1868 88.774 30.7392L87.4685 19.6512C87.4013 19.074 87.2002 18.5205 86.8813 18.0348C86.5623 17.5491 86.1343 17.1446 85.6313 16.8536C81.7931 14.6311 77.6775 12.9268 73.3917 11.7852C72.8269 11.635 72.2347 11.6197 71.663 11.7404C71.0912 11.861 70.5557 12.1144 70.0998 12.4799L61.4318 19.3994C60.7603 19.3994 60.0889 19.3994 59.4175 19.3994L50.7261 12.4566C50.2698 12.0918 49.7342 11.8394 49.1624 11.7195C48.5906 11.5996 47.9987 11.6157 47.4342 11.7665C43.148 12.909 39.0323 14.6149 35.1946 16.8396C34.6925 17.1311 34.2654 17.5358 33.9473 18.0215C33.6291 18.5072 33.4288 19.0605 33.3621 19.6372L32.1312 30.7159C31.6462 31.179 31.18 31.6453 30.7323 32.1147L19.6444 33.3876C19.0672 33.4548 18.5137 33.6558 18.0279 33.9748C17.5422 34.2937 17.1377 34.7218 16.8467 35.2247C14.6242 39.0629 12.9199 43.1786 11.7783 47.4644C11.6282 48.0292 11.6128 48.6213 11.7335 49.1931C11.8542 49.7649 12.1075 50.3004 12.4731 50.7563L19.3926 59.4243C19.3926 60.0957 19.3926 60.7672 19.3926 61.4386L12.4498 70.1299C12.085 70.5863 11.8325 71.1219 11.7127 71.6937C11.5928 72.2655 11.6089 72.8574 11.7597 73.4218C12.9002 77.7087 14.6062 81.8248 16.8327 85.6615C17.1243 86.1636 17.529 86.5907 18.0147 86.9088C18.5004 87.2269 19.0536 87.4273 19.6304 87.4939L30.6904 88.7249C31.1536 89.2098 31.6198 89.6761 32.0892 90.1237L33.3808 101.212C33.4479 101.789 33.649 102.342 33.968 102.828C34.2869 103.314 34.7149 103.718 35.2179 104.009C39.0561 106.232 43.1718 107.936 47.4576 109.078C48.0223 109.228 48.6145 109.243 49.1863 109.123C49.7581 109.002 50.2935 108.749 50.7495 108.383L59.4175 101.463C60.0889 101.482 60.7603 101.482 61.4318 101.463L70.1231 108.42C70.5794 108.785 71.1151 109.038 71.6868 109.157C72.2586 109.277 72.8506 109.261 73.415 109.11C77.7019 107.97 81.8179 106.264 85.6546 104.037C86.1567 103.746 86.5838 103.341 86.902 102.855C87.2201 102.37 87.4205 101.816 87.4871 101.24L88.7181 90.1797C89.203 89.7196 89.6693 89.2533 90.1169 88.7809L101.205 87.4753C101.782 87.4081 102.336 87.2071 102.821 86.8881C103.307 86.5692 103.711 86.1411 104.002 85.6382C106.225 81.8 107.929 77.6843 109.071 73.3985C109.221 72.8337 109.236 72.2416 109.116 71.6698C108.995 71.098 108.742 70.5625 108.376 70.1066L101.457 61.4386ZM93.9496 58.4078C94.0289 59.7557 94.0289 61.1072 93.9496 62.4551C93.8941 63.3779 94.1832 64.2885 94.761 65.0103L101.377 73.2773C100.618 75.6901 99.6461 78.0307 98.4725 80.2714L87.9347 81.465C87.017 81.5669 86.1697 82.0055 85.5567 82.696C84.6592 83.7054 83.7033 84.6614 82.6938 85.5589C82.0033 86.1719 81.5647 87.0192 81.4629 87.9369L80.2925 98.4653C78.0521 99.6395 75.7114 100.612 73.2984 101.37L65.0267 94.7538C64.3648 94.225 63.5426 93.9372 62.6954 93.9378H62.4716C61.1236 94.0171 59.7722 94.0171 58.4243 93.9378C57.5015 93.8823 56.5909 94.1714 55.8691 94.7492L47.5788 101.37C45.166 100.611 42.8254 99.6389 40.5847 98.4653L39.391 87.9416C39.2892 87.0239 38.8506 86.1766 38.1601 85.5636C37.1506 84.666 36.1947 83.7101 35.2972 82.7007C34.6842 82.0102 33.8369 81.5716 32.9192 81.4697L22.3907 80.2947C21.2166 78.0542 20.2445 75.7136 19.4858 73.3006L26.1023 65.0289C26.68 64.3071 26.9691 63.3966 26.9136 62.4737C26.8343 61.1258 26.8343 59.7744 26.9136 58.4265C26.9691 57.5036 26.68 56.5931 26.1023 55.8713L19.4858 47.5856C20.2451 45.1728 21.2172 42.8323 22.3907 40.5915L32.9145 39.3979C33.8322 39.296 34.6795 38.8574 35.2925 38.1669C36.19 37.1575 37.146 36.2015 38.1554 35.304C38.8487 34.6906 39.2891 33.8414 39.391 32.9213L40.5614 22.3976C42.8018 21.2234 45.1425 20.2513 47.5555 19.4927L55.8272 26.1091C56.5489 26.6868 57.4595 26.976 58.3823 26.9204C59.7303 26.8411 61.0817 26.8411 62.4296 26.9204C63.3524 26.976 64.263 26.6868 64.9848 26.1091L73.2704 19.4927C75.6833 20.2519 78.0238 21.224 80.2645 22.3976L81.4582 32.9213C81.5601 33.839 81.9987 34.6863 82.6892 35.2993C83.6986 36.1969 84.6545 37.1528 85.5521 38.1623C86.1651 38.8527 87.0124 39.2913 87.9301 39.3932L98.4585 40.5636C99.6326 42.804 100.605 45.1446 101.363 47.5577L94.747 55.8293C94.1637 56.5572 93.8742 57.4771 93.9357 58.4078H93.9496Z" fill="white"/>
</svg>
