<svg width="149" height="149" viewBox="0 0 149 149" fill="none" xmlns="http://www.w3.org/2000/svg">
<path d="M69.2997 0.175598C68.7465 0.233826 67.0285 0.437653 65.5145 0.583237C55.9058 1.63145 45.278 5.242 36.6884 10.3667C25.7694 16.8889 16.8886 25.7697 10.3663 36.6887C5.27082 45.1909 1.89321 55.0908 0.5247 65.5148C0.0588239 69.0962 0.0588239 79.9861 0.5247 83.5675C2.91232 101.708 10.8904 117.052 24.4009 129.602C31.8549 136.561 41.1433 141.977 51.247 145.296C59.2251 147.946 65.5436 148.907 74.5408 148.907C81.1796 148.907 84.1204 148.645 89.973 147.451C110.035 143.345 127.942 130.475 138.715 112.394C143.811 103.891 147.188 93.9915 148.557 83.5675C149.023 79.9861 149.023 69.0962 148.557 65.5148C147.188 55.0908 143.811 45.1909 138.715 36.6887C132.193 25.7697 123.312 16.8889 112.393 10.3667C103.978 5.32936 93.9329 1.89351 83.8583 0.583237C81.296 0.233826 71.105 -0.0282288 69.2997 0.175598ZM79.3452 9.14372C96.3205 9.92989 114.286 19.3056 125.467 33.1946C135.949 46.2392 140.841 61.4675 139.996 78.3847C138.744 103.717 122.089 126.545 98.0384 135.804C89.4489 139.123 80.539 140.492 70.6682 139.997C37.8822 138.366 10.7157 111.2 9.08518 78.3847C8.59019 68.543 9.9587 59.6331 13.2781 51.0435C22.5374 27.0509 45.2197 10.4249 70.61 9.05637C72.7064 8.9399 74.8029 8.88167 75.2687 8.9399C75.7637 8.96901 77.5981 9.05637 79.3452 9.14372Z" fill="white"/>
<path d="M41.9295 49.7042C38.1734 50.3157 32.8449 53.373 31.4182 55.7024C29.7003 58.5268 31.855 62.312 35.1743 62.312C36.6011 62.312 37.2125 62.05 38.9013 60.6814C40.794 59.1382 42.6575 58.4394 44.9868 58.4103C48.1024 58.4103 49.005 58.7597 52.5282 61.2929C53.6638 62.1082 54.1879 62.312 55.3235 62.312C58.6428 62.312 60.6519 58.9344 59.1087 55.9353C58.4973 54.7124 55.7893 52.5286 53.4891 51.3348C50.5191 49.8498 45.4236 49.1219 41.9295 49.7042Z" fill="white"/>
<path d="M99.1158 50.0536C96.5243 50.7524 94.7191 51.6551 92.3606 53.4312C89.5653 55.5277 88.75 57.7115 89.9147 59.9826C90.6426 61.4385 92.0985 62.312 93.7582 62.312C94.8938 62.312 95.4179 62.1082 96.5535 61.2929C100.077 58.7597 100.979 58.4103 104.095 58.4103C106.424 58.4394 108.288 59.1382 110.18 60.6814C111.869 62.05 112.481 62.312 113.907 62.312C117.227 62.312 119.381 58.5268 117.663 55.7024C116.528 53.868 113.063 51.5677 109.482 50.3157C107.065 49.4422 101.824 49.3257 99.1158 50.0536Z" fill="white"/>
<path d="M33.1941 78.3848C31.3597 79.3456 30.8647 80.4812 30.8647 83.5968C30.8647 90.2937 33.2524 98.3301 37.2123 104.969C42.8028 114.345 52.9939 121.915 63.6508 124.594C68.8628 125.904 75.8218 126.283 80.8009 125.526C99.6689 122.643 114.431 108.23 117.634 89.5658C117.955 87.6732 118.217 84.9944 118.217 83.5968C118.217 80.4812 117.722 79.3456 115.887 78.3848L114.606 77.7442H74.5407H34.4753L33.1941 78.3848ZM109.016 87.7023C107.589 95.6804 104.066 102.232 98.3295 107.648C84.9646 120.226 64.1167 120.226 50.7518 107.648C45.0157 102.232 41.4926 95.6804 40.0658 87.7023L39.9202 86.7706H74.5407H109.19L109.016 87.7023Z" fill="white"/>
</svg>
