<svg width="47" height="48" viewBox="0 0 47 48" fill="none" xmlns="http://www.w3.org/2000/svg">
<path d="M46.098 14.0192C45.9907 11.532 45.5973 9.82203 45.0337 8.34035C44.4523 6.76758 43.5579 5.35949 42.386 4.18893C41.241 3.00016 39.8546 2.07643 38.334 1.49133C36.8763 0.915162 35.2124 0.512951 32.7796 0.403289C30.3285 0.284341 29.5504 0.256836 23.3339 0.256836C17.1173 0.256836 16.3392 0.284341 13.8973 0.394002C11.4644 0.503663 9.79179 0.906232 8.34283 1.48204C6.80407 2.07643 5.42673 2.99087 4.28175 4.18893C3.11894 5.35949 2.21574 6.77687 1.64308 8.33142C1.07949 9.82203 0.686067 11.5227 0.578801 14.0099C0.462451 16.5157 0.435547 17.3111 0.435547 23.6665C0.435547 30.0219 0.462451 30.8174 0.569717 33.3139C0.676983 35.8011 1.07076 37.511 1.63434 38.9927C2.21574 40.5654 3.11894 41.9735 4.28175 43.1441C5.42673 44.3329 6.81315 45.2566 8.33375 45.8417C9.79179 46.4179 11.4553 46.8201 13.8885 46.9297C16.3301 47.0398 17.1086 47.0669 23.3251 47.0669C29.5417 47.0669 30.3198 47.0398 32.7617 46.9297C35.1946 46.8201 36.8672 46.4179 38.3162 45.8417C41.3933 44.6254 43.8262 42.1382 45.0159 38.9927C45.5791 37.5021 45.9729 35.8011 46.0802 33.3139C46.1875 30.8174 46.2144 30.0219 46.2144 23.6665C46.2144 17.3111 46.2053 16.5157 46.098 14.0192ZM41.9747 33.131C41.8762 35.4171 41.5006 36.6516 41.1875 37.4746C40.4181 39.5138 38.835 41.1323 36.8403 41.9189C36.0353 42.2389 34.819 42.6229 32.5916 42.7233C30.1765 42.8333 29.4522 42.8605 23.3429 42.8605C17.2337 42.8605 16.5003 42.8333 14.094 42.7233C11.8578 42.6229 10.6503 42.2389 9.84525 41.9189C8.85261 41.5438 7.94906 40.9494 7.21566 40.1722C6.45537 39.4131 5.87397 38.4987 5.5071 37.4838C5.19403 36.6609 4.81843 35.4171 4.72025 33.1403C4.61263 30.6713 4.58608 29.9304 4.58608 23.6847C4.58608 17.439 4.61263 16.6893 4.72025 14.2296C4.81843 11.9435 5.19403 10.709 5.5071 9.88597C5.87397 8.87079 6.45537 7.94742 7.22475 7.1973C7.96688 6.42002 8.86134 5.82564 9.85434 5.45093C10.6594 5.13088 11.876 4.74688 14.103 4.64615C16.5181 4.53649 17.2428 4.50898 23.3517 4.50898C29.47 4.50898 30.1943 4.53649 32.6007 4.64615C34.8368 4.74688 36.0444 5.13088 36.8494 5.45093C37.842 5.82564 38.7456 6.42002 39.479 7.1973C40.2393 7.95635 40.8207 8.87079 41.1875 9.88597C41.5006 10.709 41.8762 11.9524 41.9747 14.2296C42.082 16.6985 42.1089 17.439 42.1089 23.6847C42.1089 29.9304 42.082 30.662 41.9747 33.131Z" fill="white"/>
<path d="M23.3244 13.6338C17.9087 13.6338 13.5146 18.1265 13.5146 23.6645C13.5146 29.2025 17.9087 33.6952 23.3244 33.6952C28.7404 33.6952 33.1341 29.2025 33.1341 23.6645C33.1341 18.1265 28.7404 13.6338 23.3244 13.6338ZM23.3244 30.1712C19.811 30.1712 16.9611 27.2574 16.9611 23.6645C16.9611 20.0716 19.811 17.1578 23.3244 17.1578C26.8381 17.1578 29.6877 20.0716 29.6877 23.6645C29.6877 27.2574 26.8381 30.1712 23.3244 30.1712Z" fill="white"/>
<path d="M39.6736 12.5174C39.6736 14.3638 38.2096 15.861 36.4035 15.861C34.5979 15.861 33.1338 14.3638 33.1338 12.5174C33.1338 10.6705 34.5979 9.17383 36.4035 9.17383C38.2096 9.17383 39.6736 10.6705 39.6736 12.5174Z" fill="white"/>
</svg>
