<svg width="74" height="74" viewBox="0 0 74 74" fill="none" xmlns="http://www.w3.org/2000/svg">
<path d="M36.585 22.8655C33.8715 22.8655 31.219 23.6701 28.9628 25.1776C26.7067 26.6851 24.9482 28.8278 23.9098 31.3348C22.8714 33.8417 22.5997 36.6002 23.1291 39.2615C23.6585 41.9228 24.9651 44.3674 26.8838 46.2861C28.8025 48.2048 31.2471 49.5115 33.9084 50.0409C36.5698 50.5702 39.3283 50.2986 41.8352 49.2602C44.3421 48.2218 46.4848 46.4633 47.9923 44.2071C49.4999 41.951 50.3045 39.2984 50.3045 36.585C50.3007 32.9475 48.854 29.4601 46.282 26.888C43.7099 24.3159 40.2225 22.8693 36.585 22.8655ZM36.585 45.7313C34.776 45.7313 33.0077 45.1949 31.5035 44.1899C29.9994 43.1849 28.8271 41.7564 28.1349 40.0851C27.4426 38.4139 27.2615 36.5748 27.6144 34.8006C27.9673 33.0264 28.8384 31.3967 30.1175 30.1175C31.3967 28.8384 33.0264 27.9673 34.8006 27.6144C36.5748 27.2615 38.4139 27.4426 40.0851 28.1349C41.7564 28.8271 43.1849 29.9994 44.1899 31.5035C45.1949 33.0077 45.7313 34.776 45.7313 36.585C45.7313 39.0107 44.7677 41.3371 43.0524 43.0524C41.3371 44.7677 39.0107 45.7313 36.585 45.7313ZM50.3045 6.85938H22.8655C18.6218 6.86391 14.5532 8.55172 11.5525 11.5525C8.55172 14.5532 6.86391 18.6218 6.85938 22.8655V50.3045C6.86391 54.5482 8.55172 58.6168 11.5525 61.6175C14.5532 64.6182 18.6218 66.306 22.8655 66.3106H50.3045C54.5482 66.306 58.6168 64.6182 61.6175 61.6175C64.6182 58.6168 66.306 54.5482 66.3106 50.3045V22.8655C66.306 18.6218 64.6182 14.5532 61.6175 11.5525C58.6168 8.55172 54.5482 6.86391 50.3045 6.85938ZM61.7374 50.3045C61.7374 53.3367 60.5329 56.2447 58.3888 58.3888C56.2447 60.5329 53.3367 61.7374 50.3045 61.7374H22.8655C19.8333 61.7374 16.9253 60.5329 14.7812 58.3888C12.6371 56.2447 11.4325 53.3367 11.4325 50.3045V22.8655C11.4325 19.8333 12.6371 16.9253 14.7812 14.7812C16.9253 12.6371 19.8333 11.4325 22.8655 11.4325H50.3045C53.3367 11.4325 56.2447 12.6371 58.3888 14.7812C60.5329 16.9253 61.7374 19.8333 61.7374 22.8655V50.3045ZM54.8777 21.7222C54.8777 22.4005 54.6765 23.0637 54.2996 23.6277C53.9227 24.1918 53.3871 24.6314 52.7603 24.891C52.1336 25.1506 51.444 25.2185 50.7786 25.0862C50.1133 24.9538 49.5022 24.6271 49.0225 24.1475C48.5428 23.6678 48.2162 23.0566 48.0838 22.3913C47.9515 21.726 48.0194 21.0363 48.279 20.4096C48.5386 19.7829 48.9782 19.2472 49.5422 18.8703C50.1063 18.4935 50.7694 18.2923 51.4478 18.2923C52.3574 18.2923 53.2298 18.6537 53.8731 19.2969C54.5163 19.9401 54.8777 20.8125 54.8777 21.7222Z" fill="white"/>
</svg>
