<svg width="133" height="133" viewBox="0 0 133 133" fill="none" xmlns="http://www.w3.org/2000/svg">
<path d="M53.6021 94.3501H79.3998M66.5009 17.061V22.5817M101.634 31.6137L97.7304 35.5174M116.187 66.7465H110.666M22.3361 66.7465H16.8154M35.2715 35.5174L31.3678 31.6137M46.9825 86.2654C36.2028 75.4857 36.2028 58.0083 46.9825 47.2285C57.7622 36.4488 75.2396 36.4488 86.0194 47.2285C96.7991 58.0083 96.7991 75.4857 86.0194 86.2654L82.999 89.2857C79.5051 92.7796 77.5422 97.5184 77.5422 102.46V105.391C77.5422 111.489 72.5989 116.433 66.5009 116.433C60.403 116.433 55.4596 111.489 55.4596 105.391V102.46C55.4596 97.5184 53.4968 92.7796 50.0028 89.2857L46.9825 86.2654Z" stroke="white" stroke-width="8.51757" stroke-linecap="round" stroke-linejoin="round"/>
</svg>
