<svg width="47" height="48" viewBox="0 0 47 48" fill="none" xmlns="http://www.w3.org/2000/svg">
<path d="M42.8024 0.256836H3.62679C1.80328 0.256836 0.325195 1.76822 0.325195 3.63281V43.6909C0.325195 45.5555 1.80328 47.0669 3.62679 47.0669H42.8024C44.6259 47.0669 46.104 45.5555 46.104 43.6909V3.63281C46.104 1.76822 44.6259 0.256836 42.8024 0.256836V0.256836ZM16.5632 35.6387H10.9886V18.4895H16.5632V35.6387ZM13.7761 16.1478H13.7397C11.8691 16.1478 10.6592 14.8311 10.6592 13.1854C10.6592 11.5026 11.9061 10.2223 13.8131 10.2223C15.7201 10.2223 16.8936 11.5026 16.9299 13.1854C16.9299 14.8311 15.7201 16.1478 13.7761 16.1478ZM36.6641 35.6387H31.0902V26.4643C31.0902 24.1586 30.283 22.5862 28.266 22.5862C26.7261 22.5862 25.8089 23.6469 25.4059 24.6708C25.2585 25.0372 25.2225 25.5493 25.2225 26.0618V35.6387H19.6483C19.6483 35.6387 19.7213 20.0984 19.6483 18.4895H25.2225V20.9177C25.9633 19.7491 27.2888 18.087 30.2463 18.087C33.914 18.087 36.6641 20.538 36.6641 25.8054V35.6387Z" fill="white"/>
</svg>
