<svg width="74" height="74" viewBox="0 0 74 74" fill="none" xmlns="http://www.w3.org/2000/svg">
<path d="M62.3224 7.6875H12.0175C10.8046 7.6875 9.64142 8.16931 8.78379 9.02695C7.92615 9.88459 7.44434 11.0478 7.44434 12.2607V62.5655C7.44434 63.7784 7.92615 64.9416 8.78379 65.7993C9.64142 66.6569 10.8046 67.1387 12.0175 67.1387H62.3224C63.5353 67.1387 64.6985 66.6569 65.5561 65.7993C66.4137 64.9416 66.8956 63.7784 66.8956 62.5655V12.2607C66.8956 11.0478 66.4137 9.88459 65.5561 9.02695C64.6985 8.16931 63.5353 7.6875 62.3224 7.6875ZM62.3224 62.5655H12.0175V12.2607H62.3224V62.5655ZM28.0236 32.8399V51.1326C28.0236 51.7391 27.7827 52.3207 27.3539 52.7495C26.9251 53.1783 26.3435 53.4192 25.737 53.4192C25.1306 53.4192 24.549 53.1783 24.1202 52.7495C23.6913 52.3207 23.4504 51.7391 23.4504 51.1326V32.8399C23.4504 32.2335 23.6913 31.6519 24.1202 31.2231C24.549 30.7943 25.1306 30.5534 25.737 30.5534C26.3435 30.5534 26.9251 30.7943 27.3539 31.2231C27.7827 31.6519 28.0236 32.2335 28.0236 32.8399ZM53.176 40.843V51.1326C53.176 51.7391 52.9351 52.3207 52.5063 52.7495C52.0775 53.1783 51.4959 53.4192 50.8895 53.4192C50.283 53.4192 49.7014 53.1783 49.2726 52.7495C48.8438 52.3207 48.6029 51.7391 48.6029 51.1326V40.843C48.6029 39.3269 48.0006 37.8729 46.9286 36.8008C45.8565 35.7288 44.4025 35.1265 42.8864 35.1265C41.3703 35.1265 39.9163 35.7288 38.8443 36.8008C37.7722 37.8729 37.1699 39.3269 37.1699 40.843V51.1326C37.1699 51.7391 36.929 52.3207 36.5002 52.7495C36.0714 53.1783 35.4898 53.4192 34.8834 53.4192C34.2769 53.4192 33.6953 53.1783 33.2665 52.7495C32.8377 52.3207 32.5968 51.7391 32.5968 51.1326V32.8399C32.5996 32.2799 32.8079 31.7403 33.1822 31.3236C33.5564 30.9069 34.0706 30.6421 34.6272 30.5793C35.1838 30.5166 35.744 30.6603 36.2016 30.9832C36.6593 31.3061 36.9825 31.7858 37.1099 32.3312C38.6568 31.2818 40.4602 30.6737 42.3266 30.572C44.193 30.4703 46.0519 30.8789 47.7036 31.754C49.3552 32.629 50.7374 33.9375 51.7015 35.5388C52.6657 37.1401 53.1754 38.9738 53.176 40.843ZM29.1669 24.8369C29.1669 25.5153 28.9657 26.1784 28.5889 26.7424C28.212 27.3065 27.6763 27.7461 27.0496 28.0057C26.4228 28.2653 25.7332 28.3332 25.0679 28.2009C24.4025 28.0685 23.7914 27.7419 23.3117 27.2622C22.8321 26.7825 22.5054 26.1714 22.373 25.506C22.2407 24.8407 22.3086 24.1511 22.5682 23.5243C22.8278 22.8976 23.2674 22.3619 23.8315 21.9851C24.3955 21.6082 25.0587 21.407 25.737 21.407C26.6467 21.407 27.5191 21.7684 28.1623 22.4116C28.8055 23.0548 29.1669 23.9272 29.1669 24.8369Z" fill="white"/>
</svg>
