<svg width="87" height="110" viewBox="0 0 87 110" fill="none" xmlns="http://www.w3.org/2000/svg">
<path d="M43.2147 23.5717C39.3297 23.5717 35.5319 24.7237 32.3016 26.8821C29.0713 29.0405 26.5536 32.1084 25.0669 35.6977C23.5802 39.2869 23.1912 43.2365 23.9491 47.0469C24.707 50.8573 26.5779 54.3573 29.325 57.1045C32.0721 59.8516 35.5722 61.7224 39.3826 62.4803C43.1929 63.2383 47.1425 62.8493 50.7318 61.3625C54.3211 59.8758 57.3889 57.3581 59.5473 54.1278C61.7057 50.8975 62.8578 47.0998 62.8578 43.2147C62.8578 38.0051 60.7883 33.0088 57.1045 29.325C53.4207 25.6412 48.4244 23.5717 43.2147 23.5717ZM43.2147 55.0005C40.8837 55.0005 38.605 54.3093 36.6669 53.0143C34.7287 51.7192 33.2181 49.8785 32.326 47.725C31.434 45.5714 31.2006 43.2016 31.6554 40.9154C32.1101 38.6292 33.2326 36.5292 34.8809 34.8809C36.5292 33.2326 38.6292 32.1101 40.9154 31.6553C43.2017 31.2006 45.5714 31.434 47.725 32.326C49.8786 33.2181 51.7192 34.7287 53.0143 36.6669C54.3093 38.605 55.0006 40.8837 55.0006 43.2147C55.0006 46.3405 53.7588 49.3383 51.5486 51.5486C49.3383 53.7588 46.3405 55.0005 43.2147 55.0005ZM43.2147 0C31.7575 0.0129975 20.7732 4.57014 12.6717 12.6717C4.57014 20.7732 0.0129975 31.7575 0 43.2147C0 58.6345 7.12552 74.9775 20.6252 90.4808C26.6911 97.4863 33.5182 103.795 40.9803 109.289C41.6409 109.752 42.4279 110 43.2344 110C44.0409 110 44.8279 109.752 45.4884 109.289C52.9368 103.792 59.7506 97.4841 65.8042 90.4808C79.2843 74.9775 86.4295 58.6345 86.4295 43.2147C86.4165 31.7575 81.8593 20.7732 73.7578 12.6717C65.6563 4.57014 54.672 0.0129975 43.2147 0ZM43.2147 101.162C35.0972 94.7777 7.85722 71.3288 7.85722 43.2147C7.85722 33.8373 11.5824 24.844 18.2132 18.2132C24.844 11.5824 33.8373 7.85722 43.2147 7.85722C52.5921 7.85722 61.5854 11.5824 68.2163 18.2132C74.8471 24.844 78.5722 33.8373 78.5722 43.2147C78.5722 71.319 51.3322 94.7777 43.2147 101.162Z" fill="#6F2BFF"/>
</svg>
