<svg width="41" height="41" viewBox="0 0 41 41" fill="none" xmlns="http://www.w3.org/2000/svg">
<path d="M20.5 10.25C19.233 10.25 17.9944 10.6257 16.9409 11.3296C15.8874 12.0336 15.0663 13.0341 14.5814 14.2047C14.0965 15.3753 13.9697 16.6634 14.2168 17.906C14.464 19.1487 15.0742 20.2902 15.9701 21.1862C16.866 22.0821 18.0075 22.6922 19.2502 22.9394C20.4929 23.1866 21.781 23.0597 22.9516 22.5749C24.1222 22.09 25.1227 21.2689 25.8266 20.2154C26.5305 19.1619 26.9062 17.9233 26.9062 16.6562C26.9062 14.9572 26.2313 13.3278 25.0299 12.1263C23.8285 10.9249 22.199 10.25 20.5 10.25ZM20.5 20.5C19.7398 20.5 18.9966 20.2746 18.3645 19.8522C17.7324 19.4299 17.2398 18.8295 16.9488 18.1272C16.6579 17.4248 16.5818 16.652 16.7301 15.9064C16.8784 15.1608 17.2445 14.4759 17.7821 13.9383C18.3196 13.4008 19.0045 13.0347 19.7501 12.8864C20.4957 12.738 21.2686 12.8142 21.9709 13.1051C22.6733 13.396 23.2736 13.8887 23.696 14.5208C24.1183 15.1529 24.3438 15.896 24.3438 16.6562C24.3438 17.6757 23.9388 18.6533 23.2179 19.3742C22.4971 20.095 21.5194 20.5 20.5 20.5ZM20.5 2.5625C16.7634 2.56674 13.1811 4.05297 10.5389 6.69515C7.89672 9.33732 6.41049 12.9197 6.40625 16.6562C6.40625 21.6852 8.73012 27.0152 13.1328 32.0713C15.1111 34.356 17.3376 36.4134 19.7713 38.2053C19.9867 38.3562 20.2434 38.4371 20.5064 38.4371C20.7694 38.4371 21.0261 38.3562 21.2415 38.2053C23.6707 36.4126 25.8929 34.3553 27.8672 32.0713C32.2635 27.0152 34.5938 21.6852 34.5938 16.6562C34.5895 12.9197 33.1033 9.33732 30.4611 6.69515C27.8189 4.05297 24.2366 2.56674 20.5 2.5625ZM20.5 35.5547C17.8526 33.4727 8.96875 25.8252 8.96875 16.6562C8.96875 13.598 10.1836 10.665 12.3462 8.50242C14.5087 6.3399 17.4417 5.125 20.5 5.125C23.5583 5.125 26.4913 6.3399 28.6538 8.50242C30.8164 10.665 32.0312 13.598 32.0312 16.6562C32.0312 25.822 23.1474 33.4727 20.5 35.5547Z" fill="#363636"/>
</svg>
