<svg width="114" height="114" viewBox="0 0 114 114" fill="none" xmlns="http://www.w3.org/2000/svg">
<path d="M78.3119 7.28906H35.7241C32.9004 7.28906 30.1923 8.41079 28.1956 10.4075C26.1989 12.4042 25.0771 15.1123 25.0771 17.936V96.0137C25.0771 98.8375 26.1989 101.546 28.1956 103.542C30.1923 105.539 32.9004 106.661 35.7241 106.661H78.3119C81.1357 106.661 83.8438 105.539 85.8405 103.542C87.8372 101.546 88.9589 98.8375 88.9589 96.0137V17.936C88.9589 15.1123 87.8372 12.4042 85.8405 10.4075C83.8438 8.41079 81.1357 7.28906 78.3119 7.28906ZM81.8609 96.0137C81.8609 96.955 81.487 97.8577 80.8215 98.5232C80.1559 99.1888 79.2532 99.5627 78.3119 99.5627H35.7241C34.7829 99.5627 33.8802 99.1888 33.2146 98.5232C32.549 97.8577 32.1751 96.955 32.1751 96.0137V17.936C32.1751 16.9948 32.549 16.0921 33.2146 15.4265C33.8802 14.7609 34.7829 14.387 35.7241 14.387H78.3119C79.2532 14.387 80.1559 14.7609 80.8215 15.4265C81.487 16.0921 81.8609 16.9948 81.8609 17.936V96.0137ZM62.3415 26.8085C62.3415 27.8614 62.0293 28.8906 61.4443 29.7661C60.8594 30.6415 60.028 31.3238 59.0552 31.7267C58.0825 32.1297 57.0121 32.2351 55.9795 32.0297C54.9468 31.8243 53.9983 31.3173 53.2538 30.5728C52.5093 29.8283 52.0022 28.8797 51.7968 27.847C51.5914 26.8144 51.6968 25.744 52.0998 24.7713C52.5027 23.7985 53.185 22.9671 54.0605 22.3822C54.9359 21.7972 55.9651 21.485 57.018 21.485C58.4299 21.485 59.7839 22.0459 60.7823 23.0442C61.7806 24.0426 62.3415 25.3966 62.3415 26.8085Z" fill="white"/>
</svg>
