<svg width="50" height="52" viewBox="0 0 50 52" fill="none" xmlns="http://www.w3.org/2000/svg">
<path d="M6.25 10.8333C6.25 8.4401 8.11548 6.5 10.4167 6.5H17.2484C18.1451 6.5 18.9413 7.09677 19.2248 7.98151L22.3453 17.7173C22.6731 18.7402 22.2279 19.8582 21.3006 20.3404L16.5979 22.7857C18.8943 28.0826 22.9975 32.35 28.0906 34.7382L30.4419 29.8474C30.9056 28.883 31.9806 28.4199 32.9641 28.7609L42.3255 32.0062C43.1762 32.3011 43.75 33.129 43.75 34.0616V41.1667C43.75 43.5599 41.8845 45.5 39.5833 45.5H37.5C20.2411 45.5 6.25 30.9493 6.25 13V10.8333Z" stroke="#93E0BA" stroke-width="3.66667" stroke-linecap="round" stroke-linejoin="round"/>
<path d="M20.0386 16.4209L19.4905 13.1429C18.8108 9.07791 14.6036 6.63162 10.7346 8.05175C9.30456 8.57664 8.01661 9.56136 7.62733 11.0341C5.67533 18.4188 12.2628 29.5843 17.8444 36.8861C19.8216 39.4728 22.7581 41.1051 25.9558 41.7177L35.7455 43.5932C39.3685 44.2873 42.765 41.6082 42.9338 37.9232C43.0751 34.837 40.8706 32.1393 37.8181 31.6632L34.1521 31.0913C32.6894 30.8631 31.2073 31.3627 30.1812 32.4298C28.5394 34.1373 25.8606 34.2949 24.0299 32.7918L21.2133 30.4793C18.4518 28.2119 17.652 24.3223 19.2948 21.1493C20.0477 19.6951 20.3087 18.036 20.0386 16.4209Z" fill="#93E0BA" stroke="#93E0BA" stroke-width="1.19944"/>
</svg>
