<svg width="105" height="107" viewBox="0 0 105 107" fill="none" xmlns="http://www.w3.org/2000/svg">
<circle cx="54.0788" cy="48.5212" r="42.3562" fill="white" fill-opacity="0.89"/>
<circle cx="54.0788" cy="48.5212" r="40.8562" stroke="white" stroke-opacity="0.89" stroke-width="3"/>
<path d="M32.3564 43.952L27.5947 48.8357L32.7226 53.9636C37.4843 58.8473 37.9726 59.0915 39.9261 57.0159C41.8796 55.0624 41.8796 54.8183 39.0715 51.888L36.2633 48.8357L39.0715 45.7834C41.3912 43.3415 41.6354 42.4869 40.2924 40.8997C38.0947 38.3357 37.7284 38.4578 32.3564 43.952Z" fill="#0093D1"/>
<path d="M67.152 40.8997C65.8089 42.4869 66.0531 43.3415 68.3729 45.7834L71.181 48.8357L68.3729 51.888C65.5648 54.8183 65.5648 55.0624 67.5183 57.0159C69.4717 59.0915 69.9601 58.8473 74.7217 53.9636L79.8496 48.8357L75.088 43.952C69.7159 38.4578 69.3496 38.3357 67.152 40.8997Z" fill="#0093D1"/>
</svg>
