<svg width="40" height="40" viewBox="0 0 40 40" fill="none" xmlns="http://www.w3.org/2000/svg">
<path d="M38.6544 10.7719C38.5599 10.5435 38.3997 10.3482 38.1942 10.2108C37.9886 10.0734 37.747 10.0001 37.4998 10H32.7451C32.0803 8.86905 31.1342 7.92933 29.9988 7.27222C28.8633 6.6151 27.5772 6.26296 26.2654 6.25002C25.2881 6.2372 24.318 6.41998 23.4124 6.7876C22.5068 7.15522 21.6838 7.70026 20.9919 8.39065C20.2799 9.08943 19.7147 9.92353 19.3296 10.8439C18.9446 11.7643 18.7474 12.7523 18.7498 13.75V14.7016C12.4591 13.0422 7.31382 7.92502 7.25913 7.87033C7.09143 7.70115 6.87888 7.5834 6.6465 7.53097C6.41413 7.47853 6.17161 7.49359 5.9475 7.57437C5.7234 7.65514 5.52704 7.79827 5.38156 7.9869C5.23607 8.17554 5.14751 8.40181 5.12632 8.63908C4.45288 16.1063 6.62163 21.1031 8.56382 23.9797C9.51081 25.4017 10.6629 26.6759 11.9826 27.761C9.60288 30.5 5.85601 31.9391 5.81538 31.9547C5.639 32.0208 5.47982 32.1258 5.34975 32.2621C5.21968 32.3983 5.12207 32.5621 5.06423 32.7414C5.00638 32.9206 4.98979 33.1106 5.01569 33.2972C5.0416 33.4838 5.10932 33.6621 5.21382 33.8188C5.331 33.9938 5.79976 34.6078 6.94507 35.1813C8.36069 35.8906 10.231 36.25 12.4998 36.25C23.5419 36.25 32.7685 27.7469 33.7107 16.8063L38.3841 12.1344C38.5589 11.9595 38.6778 11.7367 38.726 11.4941C38.7741 11.2516 38.7492 11.0003 38.6544 10.7719ZM31.6232 15.3672C31.4089 15.582 31.28 15.8675 31.2607 16.1703C30.6248 26.0281 22.3873 33.75 12.4998 33.75C10.8498 33.75 9.68725 33.5313 8.87163 33.2688C10.6701 32.2922 13.1779 30.6125 14.7904 28.1938C14.885 28.0515 14.9495 27.8914 14.9798 27.7233C15.0102 27.5552 15.0058 27.3826 14.9668 27.2163C14.9279 27.05 14.8552 26.8934 14.7534 26.7562C14.6516 26.619 14.5227 26.5042 14.3748 26.4188C14.3013 26.3766 7.51382 22.3031 7.49975 11.4188C9.99975 13.45 14.5701 16.6016 19.7919 17.4797C19.9709 17.5099 20.1543 17.5007 20.3294 17.4529C20.5044 17.405 20.667 17.3196 20.8057 17.2026C20.9444 17.0856 21.056 16.9397 21.1327 16.7752C21.2094 16.6107 21.2493 16.4315 21.2498 16.25V13.75C21.2484 13.0832 21.3803 12.4229 21.6379 11.8078C21.8955 11.1928 22.2736 10.6355 22.7498 10.1688C23.2062 9.71142 23.7498 9.35023 24.3483 9.10655C24.9467 8.86286 25.588 8.74163 26.2341 8.75002C28.2123 8.77502 30.0607 9.98127 30.8341 11.7516C30.9316 11.9742 31.0919 12.1635 31.2953 12.2964C31.4987 12.4293 31.7365 12.5001 31.9794 12.5H34.4794L31.6232 15.3672Z" fill="#363636"/>
</svg>
