<svg width="51" height="43" viewBox="0 0 51 43" fill="none" xmlns="http://www.w3.org/2000/svg">
<path d="M50.9278 5.50113C49.0632 6.35142 47.0765 6.91503 45.0051 7.18869C47.136 5.866 48.7624 3.7875 49.527 1.28222C47.5403 2.51368 45.3467 3.38353 43.009 3.86895C41.1225 1.78067 38.4338 0.487305 35.5007 0.487305C29.81 0.487305 25.2285 5.28937 25.2285 11.1763C25.2285 12.0233 25.2975 12.8378 25.4667 13.6132C16.9212 13.1799 9.35965 8.92186 4.27997 2.4355C3.39314 4.0351 2.87295 5.866 2.87295 7.837C2.87295 11.5379 4.70615 14.8186 7.43871 16.7179C5.78726 16.6853 4.16716 16.1869 2.79461 15.4017C2.79461 15.4343 2.79461 15.4766 2.79461 15.519C2.79461 20.712 6.35759 25.0254 11.0299 26.019C10.1932 26.2568 9.2813 26.3709 8.33494 26.3709C7.67687 26.3709 7.01253 26.3318 6.38893 26.1884C7.72074 30.4204 11.4999 33.5316 15.9936 33.6326C12.4964 36.4767 8.05604 38.1903 3.24899 38.1903C2.40604 38.1903 1.59755 38.1512 0.789062 38.0437C5.34228 41.0963 10.7385 42.8393 16.5577 42.8393C35.4725 42.8393 45.8136 26.5501 45.8136 12.4306C45.8136 11.9582 45.7979 11.5021 45.776 11.0492C47.816 9.54411 49.5301 7.66433 50.9278 5.50113Z" fill="white"/>
</svg>
