<svg width="74" height="74" viewBox="0 0 74 74" fill="none" xmlns="http://www.w3.org/2000/svg">
<path d="M70.905 19.7045C70.732 19.2867 70.439 18.9295 70.063 18.6782C69.687 18.4268 69.245 18.2926 68.7927 18.2925H60.0951C58.8791 16.2237 57.1484 14.5047 55.0714 13.3027C52.9944 12.1006 50.6417 11.4565 48.242 11.4328C46.4543 11.4093 44.6798 11.7437 43.0232 12.4162C41.3666 13.0886 39.8611 14.0857 38.5955 15.3486C37.2929 16.6268 36.2591 18.1526 35.5547 19.8362C34.8503 21.5199 34.4897 23.3273 34.494 25.1523V26.893C22.9867 23.8575 13.5746 14.4968 13.4745 14.3968C13.1677 14.0873 12.7789 13.8719 12.3539 13.776C11.9288 13.6801 11.4851 13.7076 11.0752 13.8554C10.6653 14.0031 10.3061 14.265 10.0399 14.61C9.7738 14.9551 9.61181 15.369 9.57303 15.803C8.34113 29.4625 12.3084 38.6031 15.8611 43.8651C17.5935 46.4664 19.7008 48.7972 22.115 50.7821C17.7619 55.7925 10.9078 58.425 10.8335 58.4536C10.5109 58.5744 10.2197 58.7666 9.98175 59.0158C9.74381 59.265 9.56526 59.5647 9.45945 59.8926C9.35363 60.2205 9.32328 60.5681 9.37067 60.9094C9.41805 61.2506 9.54195 61.5768 9.73309 61.8634C9.94746 62.1835 10.8049 63.3068 12.9 64.3558C15.4896 65.6534 18.9109 66.3108 23.061 66.3108C43.2601 66.3108 60.138 50.7563 61.8615 30.743L70.4105 22.1969C70.7302 21.8769 70.9478 21.4694 71.0358 21.0257C71.1238 20.5821 71.0783 20.1223 70.905 19.7045ZM58.0429 28.1106C57.6509 28.5036 57.4152 29.0257 57.3798 29.5797C56.2165 47.6123 41.1479 61.7377 23.061 61.7377C20.0427 61.7377 17.9162 61.3375 16.4242 60.8573C19.714 59.0709 24.3015 55.9983 27.2512 51.5738C27.4243 51.3136 27.5423 51.0207 27.5978 50.7132C27.6533 50.4057 27.6452 50.09 27.5739 49.7857C27.5027 49.4815 27.3698 49.195 27.1835 48.9441C26.9973 48.6932 26.7615 48.4831 26.4909 48.3268C26.3566 48.2497 13.9404 40.7983 13.9147 20.8878C18.4879 24.6035 26.8482 30.3686 36.4004 31.9749C36.7278 32.0301 37.0632 32.0133 37.3835 31.9258C37.7037 31.8383 38.0011 31.682 38.2549 31.468C38.5086 31.2539 38.7127 30.9871 38.853 30.6862C38.9933 30.3853 39.0663 30.0575 39.0671 29.7255V25.1523C39.0646 23.9326 39.306 22.7246 39.7772 21.5996C40.2484 20.4745 40.9399 19.4551 41.811 18.6012C42.6461 17.7646 43.6404 17.1039 44.7351 16.6581C45.8299 16.2124 47.0029 15.9906 48.1849 16.006C51.8034 16.0517 55.1847 18.2583 56.5995 21.4966C56.7779 21.9038 57.071 22.2501 57.4431 22.4933C57.8152 22.7364 58.2501 22.8658 58.6946 22.8657H63.2678L58.0429 28.1106Z" fill="white"/>
</svg>
