<svg width="115" height="115" viewBox="0 0 115 115" fill="none" xmlns="http://www.w3.org/2000/svg">
<g clip-path="url(#clip0_104_229)">
<path d="M109.035 67.6981C108.657 67.9817 108.227 68.188 107.769 68.3053C107.311 68.4226 106.835 68.4486 106.367 68.3817C105.899 68.3149 105.449 68.1566 105.042 67.9158C104.636 67.675 104.28 67.3565 103.997 66.9784C101.828 64.0626 99.0043 61.6969 95.7538 60.0717C92.5034 58.4465 88.9168 57.6071 85.2827 57.6212C84.575 57.6212 83.883 57.4125 83.2933 57.0212C82.7036 56.6299 82.2423 56.0735 81.9672 55.4214C81.7804 54.9786 81.6841 54.5029 81.6841 54.0224C81.6841 53.5418 81.7804 53.0661 81.9672 52.6233C82.2423 51.9712 82.7036 51.4148 83.2933 51.0235C83.883 50.6323 84.575 50.4235 85.2827 50.4235C87.302 50.4233 89.2807 49.8568 90.9942 48.7884C92.7077 47.72 94.0873 46.1925 94.9761 44.3793C95.865 42.5662 96.2276 40.5401 96.0227 38.5312C95.8178 36.5223 95.0536 34.6112 93.8169 33.0148C92.5803 31.4185 90.9208 30.2009 89.0269 29.5005C87.1329 28.8 85.0805 28.6448 83.1028 29.0523C81.125 29.4598 79.3012 30.4138 77.8385 31.8059C76.3757 33.198 75.3327 34.9724 74.8279 36.9276C74.7097 37.3855 74.5026 37.8156 74.2182 38.1933C73.9338 38.5711 73.5778 38.8892 73.1705 39.1294C72.7633 39.3696 72.3126 39.5272 71.8444 39.5933C71.3762 39.6593 70.8996 39.6325 70.4417 39.5143C69.9839 39.3962 69.5538 39.189 69.176 38.9046C68.7983 38.6203 68.4802 38.2643 68.24 37.857C67.9998 37.4497 67.8422 36.9991 67.7761 36.5309C67.7101 36.0627 67.7369 35.586 67.855 35.1282C68.5557 32.4169 69.8795 29.9066 71.7211 27.797C73.5627 25.6874 75.8712 24.0367 78.463 22.9763C81.0548 21.9159 83.8583 21.475 86.6504 21.6887C89.4426 21.9024 92.1463 22.7649 94.5465 24.2074C96.9467 25.6499 98.9771 27.6327 100.476 29.998C101.975 32.3634 102.902 35.0459 103.181 37.8322C103.461 40.6185 103.087 43.4317 102.088 46.0479C101.09 48.6641 99.4943 51.0111 97.4289 52.9022C102.323 55.021 106.577 58.3834 109.769 62.6552C110.052 63.0342 110.258 63.4655 110.375 63.9243C110.491 64.3831 110.516 64.8604 110.448 65.3288C110.38 65.7972 110.22 66.2477 109.978 66.6542C109.735 67.0608 109.415 67.4155 109.035 67.6981ZM84.7968 95.4096C85.0572 95.8192 85.2321 96.2773 85.3108 96.7562C85.3896 97.2351 85.3707 97.7251 85.2552 98.1965C85.1397 98.668 84.9301 99.1112 84.6389 99.4995C84.3477 99.8878 83.9809 100.213 83.5607 100.456C83.1405 100.699 82.6755 100.854 82.1936 100.913C81.7118 100.971 81.2231 100.932 80.7569 100.797C80.2908 100.661 79.8568 100.433 79.4811 100.126C79.1054 99.8187 78.7957 99.4386 78.5707 99.0085C76.3036 95.1697 73.0749 91.9883 69.2029 89.7782C65.331 87.5682 60.9498 86.4058 56.4915 86.4058C52.0333 86.4058 47.6521 87.5682 43.7802 89.7782C39.9082 91.9883 36.6795 95.1697 34.4124 99.0085C34.1874 99.4386 33.8777 99.8187 33.502 100.126C33.1263 100.433 32.6923 100.661 32.2262 100.797C31.76 100.932 31.2713 100.971 30.7895 100.913C30.3076 100.854 29.8426 100.699 29.4224 100.456C29.0022 100.213 28.6354 99.8878 28.3442 99.4995C28.053 99.1112 27.8434 98.668 27.7279 98.1965C27.6124 97.7251 27.5935 97.2351 27.6723 96.7562C27.751 96.2773 27.9259 95.8192 28.1863 95.4096C31.6754 89.4146 36.9954 84.6969 43.3646 81.9497C39.7807 79.2058 37.1467 75.4077 35.833 71.0893C34.5193 66.771 34.5919 62.1495 36.0405 57.8745C37.4891 53.5996 40.241 49.886 43.9092 47.2559C47.5775 44.6258 51.9778 43.2113 56.4915 43.2113C61.0053 43.2113 65.4056 44.6258 69.0739 47.2559C72.7421 49.886 75.494 53.5996 76.9426 57.8745C78.3912 62.1495 78.4638 66.771 77.1501 71.0893C75.8364 75.4077 73.2024 79.2058 69.6185 81.9497C75.9877 84.6969 81.3077 89.4146 84.7968 95.4096ZM56.4915 79.2146C59.3387 79.2146 62.122 78.3703 64.4893 76.7885C66.8566 75.2067 68.7017 72.9584 69.7913 70.328C70.8809 67.6975 71.166 64.8031 70.6105 62.0106C70.055 59.2181 68.684 56.6531 66.6707 54.6398C64.6575 52.6266 62.0924 51.2555 59.3 50.7001C56.5075 50.1446 53.6131 50.4297 50.9826 51.5193C48.3522 52.6088 46.1039 54.4539 44.5221 56.8213C42.9403 59.1886 42.096 61.9719 42.096 64.819C42.096 68.637 43.6127 72.2985 46.3124 74.9982C49.012 77.6979 52.6736 79.2146 56.4915 79.2146ZM31.2993 54.0224C31.2993 53.0679 30.9202 52.1525 30.2452 51.4776C29.5703 50.8026 28.6549 50.4235 27.7004 50.4235C25.6811 50.4233 23.7023 49.8568 21.9889 48.7884C20.2754 47.72 18.8958 46.1925 18.007 44.3793C17.1181 42.5662 16.7555 40.5401 16.9604 38.5312C17.1653 36.5223 17.9295 34.6112 19.1661 33.0148C20.4028 31.4185 22.0623 30.2009 23.9562 29.5005C25.8502 28.8 27.9026 28.6448 29.8803 29.0523C31.8581 29.4598 33.6819 30.4138 35.1446 31.8059C36.6074 33.198 37.6504 34.9724 38.1552 36.9276C38.3938 37.8523 38.99 38.6443 39.8126 39.1294C40.6351 39.6145 41.6167 39.753 42.5414 39.5143C43.466 39.2757 44.258 38.6795 44.7431 37.857C45.2282 37.0344 45.3667 36.0528 45.1281 35.1282C44.4274 32.4169 43.1036 29.9066 41.262 27.797C39.4204 25.6874 37.1119 24.0367 34.5201 22.9763C31.9283 21.9159 29.1248 21.475 26.3327 21.6887C23.5405 21.9024 20.8368 22.7649 18.4366 24.2074C16.0364 25.6499 14.006 27.6327 12.5069 29.998C11.0079 32.3634 10.0815 35.0459 9.80166 37.8322C9.52178 40.6185 9.89605 43.4317 10.8947 46.0479C11.8934 48.6641 13.4888 51.0111 15.5542 52.9022C10.6655 55.023 6.41621 58.3852 3.22798 62.6552C2.65469 63.4188 2.40822 64.3788 2.54278 65.3241C2.67734 66.2695 3.18192 67.1226 3.94551 67.6959C4.7091 68.2692 5.66915 68.5157 6.61446 68.3811C7.55977 68.2465 8.41291 67.7419 8.9862 66.9784C11.1554 64.0626 13.9788 61.6969 17.2293 60.0717C20.4797 58.4465 24.0663 57.6071 27.7004 57.6212C28.6549 57.6212 29.5703 57.2421 30.2452 56.5672C30.9202 55.8922 31.2993 54.9768 31.2993 54.0224Z" fill="white"/>
</g>
<defs>
<clipPath id="clip0_104_229">
<rect width="114.037" height="114.037" fill="white"/>
</clipPath>
</defs>
</svg>
